<?xml version="1.0" encoding="UTF-8" standalone="no"?>
<!DOCTYPE svg PUBLIC "-//W3C//DTD SVG 1.1//EN"
 "http://www.w3.org/Graphics/SVG/1.1/DTD/svg11.dtd">
<!-- Generated by graphviz version 2.38.0 (20140413.2041)
 -->
<!-- Title: communication.Broadcaster Pages: 1 -->
<svg width="146pt" height="469pt"
 viewBox="0.00 0.00 146.00 469.00" xmlns="http://www.w3.org/2000/svg" xmlns:xlink="http://www.w3.org/1999/xlink">
<g id="graph0" class="graph" transform="scale(1 1) rotate(0) translate(4 465)">
<title>communication.Broadcaster</title>
<!-- Node1 -->
<g id="node1" class="node"><title>Node1</title>
<polygon fill="#bfbfbf" stroke="black" points="0,-0.5 0,-156.5 138,-156.5 138,-0.5 0,-0.5"/>
<text text-anchor="middle" x="69" y="-144.5" font-family="Helvetica,sans-Serif" font-size="10.00">communication.Broadcaster</text>
<polyline fill="none" stroke="black" points="0,-137.5 138,-137.5 "/>
<text text-anchor="start" x="8" y="-125.5" font-family="Helvetica,sans-Serif" font-size="10.00">&#45; _publishers</text>
<text text-anchor="start" x="8" y="-114.5" font-family="Helvetica,sans-Serif" font-size="10.00">&#45; _subscribers</text>
<text text-anchor="start" x="8" y="-103.5" font-family="Helvetica,sans-Serif" font-size="10.00">&#45; _holding</text>
<text text-anchor="start" x="8" y="-92.5" font-family="Helvetica,sans-Serif" font-size="10.00">&#45; _listener</text>
<text text-anchor="start" x="8" y="-81.5" font-family="Helvetica,sans-Serif" font-size="10.00">&#45; _announcer</text>
<polyline fill="none" stroke="black" points="0,-74.5 138,-74.5 "/>
<text text-anchor="start" x="8" y="-62.5" font-family="Helvetica,sans-Serif" font-size="10.00">+ __init__()</text>
<text text-anchor="start" x="8" y="-51.5" font-family="Helvetica,sans-Serif" font-size="10.00">+ add_publisher()</text>
<text text-anchor="start" x="8" y="-40.5" font-family="Helvetica,sans-Serif" font-size="10.00">+ add_subscriber()</text>
<text text-anchor="start" x="8" y="-29.5" font-family="Helvetica,sans-Serif" font-size="10.00">+ collect()</text>
<text text-anchor="start" x="8" y="-18.5" font-family="Helvetica,sans-Serif" font-size="10.00">+ broadcast()</text>
<text text-anchor="start" x="8" y="-7.5" font-family="Helvetica,sans-Serif" font-size="10.00">+ run()</text>
</g>
<!-- Node2 -->
<g id="node2" class="node"><title>Node2</title>
<g id="a_node2"><a xlink:href="classidentity_1_1Unique.html" target="_top" xlink:title="{identity.Unique\n||+ __init__()\l}">
<polygon fill="none" stroke="black" points="28,-193.5 28,-250.5 110,-250.5 110,-193.5 28,-193.5"/>
<text text-anchor="middle" x="69" y="-238.5" font-family="Helvetica,sans-Serif" font-size="10.00">identity.Unique</text>
<polyline fill="none" stroke="black" points="28,-231.5 110,-231.5 "/>
<text text-anchor="middle" x="69" y="-219.5" font-family="Helvetica,sans-Serif" font-size="10.00"> </text>
<polyline fill="none" stroke="black" points="28,-212.5 110,-212.5 "/>
<text text-anchor="start" x="36" y="-200.5" font-family="Helvetica,sans-Serif" font-size="10.00">+ __init__()</text>
</a>
</g>
</g>
<!-- Node2&#45;&gt;Node1 -->
<g id="edge1" class="edge"><title>Node2&#45;&gt;Node1</title>
<path fill="none" stroke="midnightblue" d="M69,-183.34C69,-175.044 69,-165.964 69,-156.736"/>
<polygon fill="none" stroke="midnightblue" points="65.5001,-183.381 69,-193.381 72.5001,-183.382 65.5001,-183.381"/>
</g>
<!-- Node3 -->
<g id="node3" class="node"><title>Node3</title>
<g id="a_node3"><a xlink:href="classidentity_1_1Identified.html" target="_top" xlink:title="{identity.Identified\n|&#45; __identity\l|+ __init__()\l+ __hash__()\l+ __eq__()\l}">
<polygon fill="none" stroke="black" points="23.5,-287.5 23.5,-366.5 114.5,-366.5 114.5,-287.5 23.5,-287.5"/>
<text text-anchor="middle" x="69" y="-354.5" font-family="Helvetica,sans-Serif" font-size="10.00">identity.Identified</text>
<polyline fill="none" stroke="black" points="23.5,-347.5 114.5,-347.5 "/>
<text text-anchor="start" x="31.5" y="-335.5" font-family="Helvetica,sans-Serif" font-size="10.00">&#45; __identity</text>
<polyline fill="none" stroke="black" points="23.5,-328.5 114.5,-328.5 "/>
<text text-anchor="start" x="31.5" y="-316.5" font-family="Helvetica,sans-Serif" font-size="10.00">+ __init__()</text>
<text text-anchor="start" x="31.5" y="-305.5" font-family="Helvetica,sans-Serif" font-size="10.00">+ __hash__()</text>
<text text-anchor="start" x="31.5" y="-294.5" font-family="Helvetica,sans-Serif" font-size="10.00">+ __eq__()</text>
</a>
</g>
</g>
<!-- Node3&#45;&gt;Node2 -->
<g id="edge2" class="edge"><title>Node3&#45;&gt;Node2</title>
<path fill="none" stroke="midnightblue" d="M69,-277.163C69,-268.04 69,-258.806 69,-250.61"/>
<polygon fill="none" stroke="midnightblue" points="65.5001,-277.354 69,-287.354 72.5001,-277.354 65.5001,-277.354"/>
</g>
<!-- Node4 -->
<g id="node4" class="node"><title>Node4</title>
<polygon fill="none" stroke="#bfbfbf" points="47.5,-403.5 47.5,-460.5 90.5,-460.5 90.5,-403.5 47.5,-403.5"/>
<text text-anchor="middle" x="69" y="-448.5" font-family="Helvetica,sans-Serif" font-size="10.00">object</text>
<polyline fill="none" stroke="#bfbfbf" points="47.5,-441.5 90.5,-441.5 "/>
<text text-anchor="middle" x="69" y="-429.5" font-family="Helvetica,sans-Serif" font-size="10.00"> </text>
<polyline fill="none" stroke="#bfbfbf" points="47.5,-422.5 90.5,-422.5 "/>
<text text-anchor="middle" x="69" y="-410.5" font-family="Helvetica,sans-Serif" font-size="10.00"> </text>
</g>
<!-- Node4&#45;&gt;Node3 -->
<g id="edge3" class="edge"><title>Node4&#45;&gt;Node3</title>
<path fill="none" stroke="midnightblue" d="M69,-393.156C69,-384.473 69,-375.232 69,-366.52"/>
<polygon fill="none" stroke="midnightblue" points="65.5001,-393.398 69,-403.398 72.5001,-393.398 65.5001,-393.398"/>
</g>
</g>
</svg>
