<?xml version="1.0" encoding="UTF-8" standalone="no"?>
<!DOCTYPE svg PUBLIC "-//W3C//DTD SVG 1.1//EN"
 "http://www.w3.org/Graphics/SVG/1.1/DTD/svg11.dtd">
<!-- Generated by graphviz version 2.38.0 (20140413.2041)
 -->
<!-- Title: morunner.identity.Unique Pages: 1 -->
<svg width="641pt" height="574pt"
 viewBox="0.00 0.00 640.50 574.00" xmlns="http://www.w3.org/2000/svg" xmlns:xlink="http://www.w3.org/1999/xlink">
<g id="graph0" class="graph" transform="scale(1 1) rotate(0) translate(4 570)">
<title>morunner.identity.Unique</title>
<!-- Node1 -->
<g id="node1" class="node"><title>Node1</title>
<polygon fill="#bfbfbf" stroke="black" points="291.5,-298.5 291.5,-355.5 416.5,-355.5 416.5,-298.5 291.5,-298.5"/>
<text text-anchor="middle" x="354" y="-343.5" font-family="Helvetica,sans-Serif" font-size="10.00">morunner.identity.Unique</text>
<polyline fill="none" stroke="black" points="291.5,-336.5 416.5,-336.5 "/>
<text text-anchor="middle" x="354" y="-324.5" font-family="Helvetica,sans-Serif" font-size="10.00"> </text>
<polyline fill="none" stroke="black" points="291.5,-317.5 416.5,-317.5 "/>
<text text-anchor="start" x="299.5" y="-305.5" font-family="Helvetica,sans-Serif" font-size="10.00">+ __init__()</text>
</g>
<!-- Node4 -->
<g id="node4" class="node"><title>Node4</title>
<g id="a_node4"><a xlink:href="classmorunner_1_1communication_1_1__Transmitter.html" target="_top" xlink:title="{morunner.communication.\l_Transmitter\n|&#45; _connection\l|+ __init__()\l+ connect()\l+ connection()\l}">
<polygon fill="none" stroke="black" points="115.5,-138.5 115.5,-228.5 244.5,-228.5 244.5,-138.5 115.5,-138.5"/>
<text text-anchor="start" x="123.5" y="-216.5" font-family="Helvetica,sans-Serif" font-size="10.00">morunner.communication.</text>
<text text-anchor="middle" x="180" y="-205.5" font-family="Helvetica,sans-Serif" font-size="10.00">_Transmitter</text>
<polyline fill="none" stroke="black" points="115.5,-198.5 244.5,-198.5 "/>
<text text-anchor="start" x="123.5" y="-186.5" font-family="Helvetica,sans-Serif" font-size="10.00">&#45; _connection</text>
<polyline fill="none" stroke="black" points="115.5,-179.5 244.5,-179.5 "/>
<text text-anchor="start" x="123.5" y="-167.5" font-family="Helvetica,sans-Serif" font-size="10.00">+ __init__()</text>
<text text-anchor="start" x="123.5" y="-156.5" font-family="Helvetica,sans-Serif" font-size="10.00">+ connect()</text>
<text text-anchor="start" x="123.5" y="-145.5" font-family="Helvetica,sans-Serif" font-size="10.00">+ connection()</text>
</a>
</g>
</g>
<!-- Node1&#45;&gt;Node4 -->
<g id="edge3" class="edge"><title>Node1&#45;&gt;Node4</title>
<path fill="none" stroke="midnightblue" d="M297.341,-293.059C282.731,-283.684 267.368,-273.008 254,-262 241.793,-251.948 229.535,-240.027 218.604,-228.587"/>
<polygon fill="none" stroke="midnightblue" points="295.511,-296.043 305.835,-298.422 299.248,-290.124 295.511,-296.043"/>
</g>
<!-- Node7 -->
<g id="node7" class="node"><title>Node7</title>
<g id="a_node7"><a xlink:href="classmorunner_1_1communication_1_1Broadcaster.html" target="_top" xlink:title="{morunner.communication.Broadcaster\n|&#45; _publishers\l&#45; _subscribers\l&#45; _holding\l&#45; _listener\l&#45; _announcer\l|+ __init__()\l+ add_publisher()\l+ add_subscriber()\l+ collect()\l+ broadcast()\l+ run()\l}">
<polygon fill="none" stroke="black" points="263,-105.5 263,-261.5 445,-261.5 445,-105.5 263,-105.5"/>
<text text-anchor="middle" x="354" y="-249.5" font-family="Helvetica,sans-Serif" font-size="10.00">morunner.communication.Broadcaster</text>
<polyline fill="none" stroke="black" points="263,-242.5 445,-242.5 "/>
<text text-anchor="start" x="271" y="-230.5" font-family="Helvetica,sans-Serif" font-size="10.00">&#45; _publishers</text>
<text text-anchor="start" x="271" y="-219.5" font-family="Helvetica,sans-Serif" font-size="10.00">&#45; _subscribers</text>
<text text-anchor="start" x="271" y="-208.5" font-family="Helvetica,sans-Serif" font-size="10.00">&#45; _holding</text>
<text text-anchor="start" x="271" y="-197.5" font-family="Helvetica,sans-Serif" font-size="10.00">&#45; _listener</text>
<text text-anchor="start" x="271" y="-186.5" font-family="Helvetica,sans-Serif" font-size="10.00">&#45; _announcer</text>
<polyline fill="none" stroke="black" points="263,-179.5 445,-179.5 "/>
<text text-anchor="start" x="271" y="-167.5" font-family="Helvetica,sans-Serif" font-size="10.00">+ __init__()</text>
<text text-anchor="start" x="271" y="-156.5" font-family="Helvetica,sans-Serif" font-size="10.00">+ add_publisher()</text>
<text text-anchor="start" x="271" y="-145.5" font-family="Helvetica,sans-Serif" font-size="10.00">+ add_subscriber()</text>
<text text-anchor="start" x="271" y="-134.5" font-family="Helvetica,sans-Serif" font-size="10.00">+ collect()</text>
<text text-anchor="start" x="271" y="-123.5" font-family="Helvetica,sans-Serif" font-size="10.00">+ broadcast()</text>
<text text-anchor="start" x="271" y="-112.5" font-family="Helvetica,sans-Serif" font-size="10.00">+ run()</text>
</a>
</g>
</g>
<!-- Node1&#45;&gt;Node7 -->
<g id="edge6" class="edge"><title>Node1&#45;&gt;Node7</title>
<path fill="none" stroke="midnightblue" d="M354,-288.34C354,-280.044 354,-270.964 354,-261.736"/>
<polygon fill="none" stroke="midnightblue" points="350.5,-288.381 354,-298.381 357.5,-288.382 350.5,-288.381"/>
</g>
<!-- Node8 -->
<g id="node8" class="node"><title>Node8</title>
<g id="a_node8"><a xlink:href="classmorunner_1_1communication_1_1Message.html" target="_top" xlink:title="{morunner.communication.Message\n|&#45; _description\l&#45; _data\l|+ __init__()\l}">
<polygon fill="none" stroke="black" points="463.5,-149.5 463.5,-217.5 632.5,-217.5 632.5,-149.5 463.5,-149.5"/>
<text text-anchor="middle" x="548" y="-205.5" font-family="Helvetica,sans-Serif" font-size="10.00">morunner.communication.Message</text>
<polyline fill="none" stroke="black" points="463.5,-198.5 632.5,-198.5 "/>
<text text-anchor="start" x="471.5" y="-186.5" font-family="Helvetica,sans-Serif" font-size="10.00">&#45; _description</text>
<text text-anchor="start" x="471.5" y="-175.5" font-family="Helvetica,sans-Serif" font-size="10.00">&#45; _data</text>
<polyline fill="none" stroke="black" points="463.5,-168.5 632.5,-168.5 "/>
<text text-anchor="start" x="471.5" y="-156.5" font-family="Helvetica,sans-Serif" font-size="10.00">+ __init__()</text>
</a>
</g>
</g>
<!-- Node1&#45;&gt;Node8 -->
<g id="edge7" class="edge"><title>Node1&#45;&gt;Node8</title>
<path fill="none" stroke="midnightblue" d="M408.281,-292.931C423.334,-283.314 439.514,-272.549 454,-262 472.979,-248.18 493.172,-231.774 509.958,-217.623"/>
<polygon fill="none" stroke="midnightblue" points="406.144,-290.142 399.57,-298.451 409.891,-296.055 406.144,-290.142"/>
</g>
<!-- Node2 -->
<g id="node2" class="node"><title>Node2</title>
<g id="a_node2"><a xlink:href="classmorunner_1_1identity_1_1Identified.html" target="_top" xlink:title="{morunner.identity.Identified\n|&#45; __identity\l|+ __init__()\l+ __hash__()\l+ __eq__()\l}">
<polygon fill="none" stroke="black" points="287,-392.5 287,-471.5 421,-471.5 421,-392.5 287,-392.5"/>
<text text-anchor="middle" x="354" y="-459.5" font-family="Helvetica,sans-Serif" font-size="10.00">morunner.identity.Identified</text>
<polyline fill="none" stroke="black" points="287,-452.5 421,-452.5 "/>
<text text-anchor="start" x="295" y="-440.5" font-family="Helvetica,sans-Serif" font-size="10.00">&#45; __identity</text>
<polyline fill="none" stroke="black" points="287,-433.5 421,-433.5 "/>
<text text-anchor="start" x="295" y="-421.5" font-family="Helvetica,sans-Serif" font-size="10.00">+ __init__()</text>
<text text-anchor="start" x="295" y="-410.5" font-family="Helvetica,sans-Serif" font-size="10.00">+ __hash__()</text>
<text text-anchor="start" x="295" y="-399.5" font-family="Helvetica,sans-Serif" font-size="10.00">+ __eq__()</text>
</a>
</g>
</g>
<!-- Node2&#45;&gt;Node1 -->
<g id="edge1" class="edge"><title>Node2&#45;&gt;Node1</title>
<path fill="none" stroke="midnightblue" d="M354,-382.163C354,-373.04 354,-363.806 354,-355.61"/>
<polygon fill="none" stroke="midnightblue" points="350.5,-382.354 354,-392.354 357.5,-382.354 350.5,-382.354"/>
</g>
<!-- Node3 -->
<g id="node3" class="node"><title>Node3</title>
<polygon fill="none" stroke="#bfbfbf" points="332.5,-508.5 332.5,-565.5 375.5,-565.5 375.5,-508.5 332.5,-508.5"/>
<text text-anchor="middle" x="354" y="-553.5" font-family="Helvetica,sans-Serif" font-size="10.00">object</text>
<polyline fill="none" stroke="#bfbfbf" points="332.5,-546.5 375.5,-546.5 "/>
<text text-anchor="middle" x="354" y="-534.5" font-family="Helvetica,sans-Serif" font-size="10.00"> </text>
<polyline fill="none" stroke="#bfbfbf" points="332.5,-527.5 375.5,-527.5 "/>
<text text-anchor="middle" x="354" y="-515.5" font-family="Helvetica,sans-Serif" font-size="10.00"> </text>
</g>
<!-- Node3&#45;&gt;Node2 -->
<g id="edge2" class="edge"><title>Node3&#45;&gt;Node2</title>
<path fill="none" stroke="midnightblue" d="M354,-498.156C354,-489.473 354,-480.232 354,-471.52"/>
<polygon fill="none" stroke="midnightblue" points="350.5,-498.398 354,-508.398 357.5,-498.398 350.5,-498.398"/>
</g>
<!-- Node5 -->
<g id="node5" class="node"><title>Node5</title>
<g id="a_node5"><a xlink:href="classmorunner_1_1communication_1_1Publisher.html" target="_top" xlink:title="{morunner.communication.Publisher\n||+ produce()\l}">
<polygon fill="none" stroke="black" points="0,-6 0,-63 170,-63 170,-6 0,-6"/>
<text text-anchor="middle" x="85" y="-51" font-family="Helvetica,sans-Serif" font-size="10.00">morunner.communication.Publisher</text>
<polyline fill="none" stroke="black" points="0,-44 170,-44 "/>
<text text-anchor="middle" x="85" y="-32" font-family="Helvetica,sans-Serif" font-size="10.00"> </text>
<polyline fill="none" stroke="black" points="0,-25 170,-25 "/>
<text text-anchor="start" x="8" y="-13" font-family="Helvetica,sans-Serif" font-size="10.00">+ produce()</text>
</a>
</g>
</g>
<!-- Node4&#45;&gt;Node5 -->
<g id="edge4" class="edge"><title>Node4&#45;&gt;Node5</title>
<path fill="none" stroke="midnightblue" d="M146.032,-129.939C131.505,-107.46 115.135,-82.1297 103.008,-63.3657"/>
<polygon fill="none" stroke="midnightblue" points="143.129,-131.896 151.497,-138.395 149.009,-128.097 143.129,-131.896"/>
</g>
<!-- Node6 -->
<g id="node6" class="node"><title>Node6</title>
<g id="a_node6"><a xlink:href="classmorunner_1_1communication_1_1Subscriber.html" target="_top" xlink:title="{morunner.communication.Subscriber\n||+ listen()\l+ is_interested()\l}">
<polygon fill="none" stroke="black" points="188,-0.5 188,-68.5 364,-68.5 364,-0.5 188,-0.5"/>
<text text-anchor="middle" x="276" y="-56.5" font-family="Helvetica,sans-Serif" font-size="10.00">morunner.communication.Subscriber</text>
<polyline fill="none" stroke="black" points="188,-49.5 364,-49.5 "/>
<text text-anchor="middle" x="276" y="-37.5" font-family="Helvetica,sans-Serif" font-size="10.00"> </text>
<polyline fill="none" stroke="black" points="188,-30.5 364,-30.5 "/>
<text text-anchor="start" x="196" y="-18.5" font-family="Helvetica,sans-Serif" font-size="10.00">+ listen()</text>
<text text-anchor="start" x="196" y="-7.5" font-family="Helvetica,sans-Serif" font-size="10.00">+ is_interested()</text>
</a>
</g>
</g>
<!-- Node4&#45;&gt;Node6 -->
<g id="edge5" class="edge"><title>Node4&#45;&gt;Node6</title>
<path fill="none" stroke="midnightblue" d="M214.39,-129.84C227.674,-109.499 242.474,-86.8363 254.239,-68.8221"/>
<polygon fill="none" stroke="midnightblue" points="211.341,-128.109 208.803,-138.395 217.202,-131.936 211.341,-128.109"/>
</g>
</g>
</svg>
