<?xml version="1.0" encoding="UTF-8" standalone="no"?>
<!DOCTYPE svg PUBLIC "-//W3C//DTD SVG 1.1//EN"
 "http://www.w3.org/Graphics/SVG/1.1/DTD/svg11.dtd">
<!-- Generated by graphviz version 2.38.0 (20140413.2041)
 -->
<!-- Title: runner.communication.Publisher Pages: 1 -->
<svg width="164pt" height="497pt"
 viewBox="0.00 0.00 164.00 497.00" xmlns="http://www.w3.org/2000/svg" xmlns:xlink="http://www.w3.org/1999/xlink">
<g id="graph0" class="graph" transform="scale(1 1) rotate(0) translate(4 493)">
<title>runner.communication.Publisher</title>
<!-- Node1 -->
<g id="node1" class="node"><title>Node1</title>
<polygon fill="#bfbfbf" stroke="black" points="0,-0.5 0,-57.5 156,-57.5 156,-0.5 0,-0.5"/>
<text text-anchor="middle" x="78" y="-45.5" font-family="Helvetica,sans-Serif" font-size="10.00">runner.communication.Publisher</text>
<polyline fill="none" stroke="black" points="0,-38.5 156,-38.5 "/>
<text text-anchor="middle" x="78" y="-26.5" font-family="Helvetica,sans-Serif" font-size="10.00"> </text>
<polyline fill="none" stroke="black" points="0,-19.5 156,-19.5 "/>
<text text-anchor="start" x="8" y="-7.5" font-family="Helvetica,sans-Serif" font-size="10.00">+ produce()</text>
</g>
<!-- Node2 -->
<g id="node2" class="node"><title>Node2</title>
<g id="a_node2"><a xlink:href="classrunner_1_1communication_1_1__Transmitter.html" target="_top" xlink:title="{runner.communication.\l_Transmitter\n|&#45; _connection\l|+ __init__()\l+ connect()\l+ connection()\l}">
<polygon fill="none" stroke="black" points="20,-94.5 20,-184.5 136,-184.5 136,-94.5 20,-94.5"/>
<text text-anchor="start" x="28" y="-172.5" font-family="Helvetica,sans-Serif" font-size="10.00">runner.communication.</text>
<text text-anchor="middle" x="78" y="-161.5" font-family="Helvetica,sans-Serif" font-size="10.00">_Transmitter</text>
<polyline fill="none" stroke="black" points="20,-154.5 136,-154.5 "/>
<text text-anchor="start" x="28" y="-142.5" font-family="Helvetica,sans-Serif" font-size="10.00">&#45; _connection</text>
<polyline fill="none" stroke="black" points="20,-135.5 136,-135.5 "/>
<text text-anchor="start" x="28" y="-123.5" font-family="Helvetica,sans-Serif" font-size="10.00">+ __init__()</text>
<text text-anchor="start" x="28" y="-112.5" font-family="Helvetica,sans-Serif" font-size="10.00">+ connect()</text>
<text text-anchor="start" x="28" y="-101.5" font-family="Helvetica,sans-Serif" font-size="10.00">+ connection()</text>
</a>
</g>
</g>
<!-- Node2&#45;&gt;Node1 -->
<g id="edge1" class="edge"><title>Node2&#45;&gt;Node1</title>
<path fill="none" stroke="midnightblue" d="M78,-84.3531C78,-75.074 78,-65.7909 78,-57.5896"/>
<polygon fill="none" stroke="midnightblue" points="74.5001,-84.3689 78,-94.3689 81.5001,-84.3689 74.5001,-84.3689"/>
</g>
<!-- Node3 -->
<g id="node3" class="node"><title>Node3</title>
<g id="a_node3"><a xlink:href="classrunner_1_1identity_1_1Unique.html" target="_top" xlink:title="{runner.identity.Unique\n||+ __init__()\l}">
<polygon fill="none" stroke="black" points="22,-221.5 22,-278.5 134,-278.5 134,-221.5 22,-221.5"/>
<text text-anchor="middle" x="78" y="-266.5" font-family="Helvetica,sans-Serif" font-size="10.00">runner.identity.Unique</text>
<polyline fill="none" stroke="black" points="22,-259.5 134,-259.5 "/>
<text text-anchor="middle" x="78" y="-247.5" font-family="Helvetica,sans-Serif" font-size="10.00"> </text>
<polyline fill="none" stroke="black" points="22,-240.5 134,-240.5 "/>
<text text-anchor="start" x="30" y="-228.5" font-family="Helvetica,sans-Serif" font-size="10.00">+ __init__()</text>
</a>
</g>
</g>
<!-- Node3&#45;&gt;Node2 -->
<g id="edge2" class="edge"><title>Node3&#45;&gt;Node2</title>
<path fill="none" stroke="midnightblue" d="M78,-211.214C78,-202.609 78,-193.394 78,-184.554"/>
<polygon fill="none" stroke="midnightblue" points="74.5001,-211.34 78,-221.34 81.5001,-211.34 74.5001,-211.34"/>
</g>
<!-- Node4 -->
<g id="node4" class="node"><title>Node4</title>
<g id="a_node4"><a xlink:href="classrunner_1_1identity_1_1Identified.html" target="_top" xlink:title="{runner.identity.Identified\n|&#45; __identity\l|+ __init__()\l+ __hash__()\l+ __eq__()\l}">
<polygon fill="none" stroke="black" points="17.5,-315.5 17.5,-394.5 138.5,-394.5 138.5,-315.5 17.5,-315.5"/>
<text text-anchor="middle" x="78" y="-382.5" font-family="Helvetica,sans-Serif" font-size="10.00">runner.identity.Identified</text>
<polyline fill="none" stroke="black" points="17.5,-375.5 138.5,-375.5 "/>
<text text-anchor="start" x="25.5" y="-363.5" font-family="Helvetica,sans-Serif" font-size="10.00">&#45; __identity</text>
<polyline fill="none" stroke="black" points="17.5,-356.5 138.5,-356.5 "/>
<text text-anchor="start" x="25.5" y="-344.5" font-family="Helvetica,sans-Serif" font-size="10.00">+ __init__()</text>
<text text-anchor="start" x="25.5" y="-333.5" font-family="Helvetica,sans-Serif" font-size="10.00">+ __hash__()</text>
<text text-anchor="start" x="25.5" y="-322.5" font-family="Helvetica,sans-Serif" font-size="10.00">+ __eq__()</text>
</a>
</g>
</g>
<!-- Node4&#45;&gt;Node3 -->
<g id="edge3" class="edge"><title>Node4&#45;&gt;Node3</title>
<path fill="none" stroke="midnightblue" d="M78,-305.163C78,-296.04 78,-286.806 78,-278.61"/>
<polygon fill="none" stroke="midnightblue" points="74.5001,-305.354 78,-315.354 81.5001,-305.354 74.5001,-305.354"/>
</g>
<!-- Node5 -->
<g id="node5" class="node"><title>Node5</title>
<polygon fill="none" stroke="#bfbfbf" points="56.5,-431.5 56.5,-488.5 99.5,-488.5 99.5,-431.5 56.5,-431.5"/>
<text text-anchor="middle" x="78" y="-476.5" font-family="Helvetica,sans-Serif" font-size="10.00">object</text>
<polyline fill="none" stroke="#bfbfbf" points="56.5,-469.5 99.5,-469.5 "/>
<text text-anchor="middle" x="78" y="-457.5" font-family="Helvetica,sans-Serif" font-size="10.00"> </text>
<polyline fill="none" stroke="#bfbfbf" points="56.5,-450.5 99.5,-450.5 "/>
<text text-anchor="middle" x="78" y="-438.5" font-family="Helvetica,sans-Serif" font-size="10.00"> </text>
</g>
<!-- Node5&#45;&gt;Node4 -->
<g id="edge4" class="edge"><title>Node5&#45;&gt;Node4</title>
<path fill="none" stroke="midnightblue" d="M78,-421.156C78,-412.473 78,-403.232 78,-394.52"/>
<polygon fill="none" stroke="midnightblue" points="74.5001,-421.398 78,-431.398 81.5001,-421.398 74.5001,-421.398"/>
</g>
</g>
</svg>
