<?xml version="1.0" encoding="UTF-8" standalone="no"?>
<!DOCTYPE svg PUBLIC "-//W3C//DTD SVG 1.1//EN"
 "http://www.w3.org/Graphics/SVG/1.1/DTD/svg11.dtd">
<!-- Generated by graphviz version 2.38.0 (20140413.2041)
 -->
<!-- Title: communication.Publisher Pages: 1 -->
<svg width="148pt" height="486pt"
 viewBox="0.00 0.00 148.00 486.00" xmlns="http://www.w3.org/2000/svg" xmlns:xlink="http://www.w3.org/1999/xlink">
<g id="graph0" class="graph" transform="scale(1 1) rotate(0) translate(4 482)">
<title>communication.Publisher</title>
<!-- Node1 -->
<g id="node1" class="node"><title>Node1</title>
<polygon fill="#bfbfbf" stroke="black" points="7,-0.5 7,-57.5 133,-57.5 133,-0.5 7,-0.5"/>
<text text-anchor="middle" x="70" y="-45.5" font-family="Helvetica,sans-Serif" font-size="10.00">communication.Publisher</text>
<polyline fill="none" stroke="black" points="7,-38.5 133,-38.5 "/>
<text text-anchor="middle" x="70" y="-26.5" font-family="Helvetica,sans-Serif" font-size="10.00"> </text>
<polyline fill="none" stroke="black" points="7,-19.5 133,-19.5 "/>
<text text-anchor="start" x="15" y="-7.5" font-family="Helvetica,sans-Serif" font-size="10.00">+ produce()</text>
</g>
<!-- Node2 -->
<g id="node2" class="node"><title>Node2</title>
<g id="a_node2"><a xlink:href="classcommunication_1_1__Transmitter.html" target="_top" xlink:title="{communication._Transmitter\n|&#45; _connection\l|+ __init__()\l+ connect()\l+ connection()\l}">
<polygon fill="none" stroke="black" points="0,-94.5 0,-173.5 140,-173.5 140,-94.5 0,-94.5"/>
<text text-anchor="middle" x="70" y="-161.5" font-family="Helvetica,sans-Serif" font-size="10.00">communication._Transmitter</text>
<polyline fill="none" stroke="black" points="0,-154.5 140,-154.5 "/>
<text text-anchor="start" x="8" y="-142.5" font-family="Helvetica,sans-Serif" font-size="10.00">&#45; _connection</text>
<polyline fill="none" stroke="black" points="0,-135.5 140,-135.5 "/>
<text text-anchor="start" x="8" y="-123.5" font-family="Helvetica,sans-Serif" font-size="10.00">+ __init__()</text>
<text text-anchor="start" x="8" y="-112.5" font-family="Helvetica,sans-Serif" font-size="10.00">+ connect()</text>
<text text-anchor="start" x="8" y="-101.5" font-family="Helvetica,sans-Serif" font-size="10.00">+ connection()</text>
</a>
</g>
</g>
<!-- Node2&#45;&gt;Node1 -->
<g id="edge1" class="edge"><title>Node2&#45;&gt;Node1</title>
<path fill="none" stroke="midnightblue" d="M70,-84.1628C70,-75.0404 70,-65.8063 70,-57.6095"/>
<polygon fill="none" stroke="midnightblue" points="66.5001,-84.3535 70,-94.3536 73.5001,-84.3536 66.5001,-84.3535"/>
</g>
<!-- Node3 -->
<g id="node3" class="node"><title>Node3</title>
<g id="a_node3"><a xlink:href="classidentity_1_1Unique.html" target="_top" xlink:title="{identity.Unique\n||+ __init__()\l}">
<polygon fill="none" stroke="black" points="29,-210.5 29,-267.5 111,-267.5 111,-210.5 29,-210.5"/>
<text text-anchor="middle" x="70" y="-255.5" font-family="Helvetica,sans-Serif" font-size="10.00">identity.Unique</text>
<polyline fill="none" stroke="black" points="29,-248.5 111,-248.5 "/>
<text text-anchor="middle" x="70" y="-236.5" font-family="Helvetica,sans-Serif" font-size="10.00"> </text>
<polyline fill="none" stroke="black" points="29,-229.5 111,-229.5 "/>
<text text-anchor="start" x="37" y="-217.5" font-family="Helvetica,sans-Serif" font-size="10.00">+ __init__()</text>
</a>
</g>
</g>
<!-- Node3&#45;&gt;Node2 -->
<g id="edge2" class="edge"><title>Node3&#45;&gt;Node2</title>
<path fill="none" stroke="midnightblue" d="M70,-200.156C70,-191.473 70,-182.232 70,-173.52"/>
<polygon fill="none" stroke="midnightblue" points="66.5001,-200.398 70,-210.398 73.5001,-200.398 66.5001,-200.398"/>
</g>
<!-- Node4 -->
<g id="node4" class="node"><title>Node4</title>
<g id="a_node4"><a xlink:href="classidentity_1_1Identified.html" target="_top" xlink:title="{identity.Identified\n|&#45; __identity\l|+ __init__()\l+ __hash__()\l+ __eq__()\l}">
<polygon fill="none" stroke="black" points="24.5,-304.5 24.5,-383.5 115.5,-383.5 115.5,-304.5 24.5,-304.5"/>
<text text-anchor="middle" x="70" y="-371.5" font-family="Helvetica,sans-Serif" font-size="10.00">identity.Identified</text>
<polyline fill="none" stroke="black" points="24.5,-364.5 115.5,-364.5 "/>
<text text-anchor="start" x="32.5" y="-352.5" font-family="Helvetica,sans-Serif" font-size="10.00">&#45; __identity</text>
<polyline fill="none" stroke="black" points="24.5,-345.5 115.5,-345.5 "/>
<text text-anchor="start" x="32.5" y="-333.5" font-family="Helvetica,sans-Serif" font-size="10.00">+ __init__()</text>
<text text-anchor="start" x="32.5" y="-322.5" font-family="Helvetica,sans-Serif" font-size="10.00">+ __hash__()</text>
<text text-anchor="start" x="32.5" y="-311.5" font-family="Helvetica,sans-Serif" font-size="10.00">+ __eq__()</text>
</a>
</g>
</g>
<!-- Node4&#45;&gt;Node3 -->
<g id="edge3" class="edge"><title>Node4&#45;&gt;Node3</title>
<path fill="none" stroke="midnightblue" d="M70,-294.163C70,-285.04 70,-275.806 70,-267.61"/>
<polygon fill="none" stroke="midnightblue" points="66.5001,-294.354 70,-304.354 73.5001,-294.354 66.5001,-294.354"/>
</g>
<!-- Node5 -->
<g id="node5" class="node"><title>Node5</title>
<polygon fill="none" stroke="#bfbfbf" points="48.5,-420.5 48.5,-477.5 91.5,-477.5 91.5,-420.5 48.5,-420.5"/>
<text text-anchor="middle" x="70" y="-465.5" font-family="Helvetica,sans-Serif" font-size="10.00">object</text>
<polyline fill="none" stroke="#bfbfbf" points="48.5,-458.5 91.5,-458.5 "/>
<text text-anchor="middle" x="70" y="-446.5" font-family="Helvetica,sans-Serif" font-size="10.00"> </text>
<polyline fill="none" stroke="#bfbfbf" points="48.5,-439.5 91.5,-439.5 "/>
<text text-anchor="middle" x="70" y="-427.5" font-family="Helvetica,sans-Serif" font-size="10.00"> </text>
</g>
<!-- Node5&#45;&gt;Node4 -->
<g id="edge4" class="edge"><title>Node5&#45;&gt;Node4</title>
<path fill="none" stroke="midnightblue" d="M70,-410.156C70,-401.473 70,-392.232 70,-383.52"/>
<polygon fill="none" stroke="midnightblue" points="66.5001,-410.398 70,-420.398 73.5001,-410.398 66.5001,-410.398"/>
</g>
</g>
</svg>
