<?xml version="1.0" encoding="UTF-8" standalone="no"?>
<!DOCTYPE svg PUBLIC "-//W3C//DTD SVG 1.1//EN"
 "http://www.w3.org/Graphics/SVG/1.1/DTD/svg11.dtd">
<!-- Generated by graphviz version 2.38.0 (20140413.2041)
 -->
<!-- Title: identity.Identified Pages: 1 -->
<svg width="514pt" height="574pt"
 viewBox="0.00 0.00 513.50 574.00" xmlns="http://www.w3.org/2000/svg" xmlns:xlink="http://www.w3.org/1999/xlink">
<g id="graph0" class="graph" transform="scale(1 1) rotate(0) translate(4 570)">
<title>identity.Identified</title>
<!-- Node1 -->
<g id="node1" class="node"><title>Node1</title>
<polygon fill="#bfbfbf" stroke="black" points="247.5,-392.5 247.5,-471.5 338.5,-471.5 338.5,-392.5 247.5,-392.5"/>
<text text-anchor="middle" x="293" y="-459.5" font-family="Helvetica,sans-Serif" font-size="10.00">identity.Identified</text>
<polyline fill="none" stroke="black" points="247.5,-452.5 338.5,-452.5 "/>
<text text-anchor="start" x="255.5" y="-440.5" font-family="Helvetica,sans-Serif" font-size="10.00">&#45; __identity</text>
<polyline fill="none" stroke="black" points="247.5,-433.5 338.5,-433.5 "/>
<text text-anchor="start" x="255.5" y="-421.5" font-family="Helvetica,sans-Serif" font-size="10.00">+ __init__()</text>
<text text-anchor="start" x="255.5" y="-410.5" font-family="Helvetica,sans-Serif" font-size="10.00">+ __hash__()</text>
<text text-anchor="start" x="255.5" y="-399.5" font-family="Helvetica,sans-Serif" font-size="10.00">+ __eq__()</text>
</g>
<!-- Node3 -->
<g id="node3" class="node"><title>Node3</title>
<g id="a_node3"><a xlink:href="classidentity_1_1Unique.html" target="_top" xlink:title="{identity.Unique\n||+ __init__()\l}">
<polygon fill="none" stroke="black" points="252,-298.5 252,-355.5 334,-355.5 334,-298.5 252,-298.5"/>
<text text-anchor="middle" x="293" y="-343.5" font-family="Helvetica,sans-Serif" font-size="10.00">identity.Unique</text>
<polyline fill="none" stroke="black" points="252,-336.5 334,-336.5 "/>
<text text-anchor="middle" x="293" y="-324.5" font-family="Helvetica,sans-Serif" font-size="10.00"> </text>
<polyline fill="none" stroke="black" points="252,-317.5 334,-317.5 "/>
<text text-anchor="start" x="260" y="-305.5" font-family="Helvetica,sans-Serif" font-size="10.00">+ __init__()</text>
</a>
</g>
</g>
<!-- Node1&#45;&gt;Node3 -->
<g id="edge2" class="edge"><title>Node1&#45;&gt;Node3</title>
<path fill="none" stroke="midnightblue" d="M293,-382.163C293,-373.04 293,-363.806 293,-355.61"/>
<polygon fill="none" stroke="midnightblue" points="289.5,-382.354 293,-392.354 296.5,-382.354 289.5,-382.354"/>
</g>
<!-- Node2 -->
<g id="node2" class="node"><title>Node2</title>
<polygon fill="none" stroke="#bfbfbf" points="271.5,-508.5 271.5,-565.5 314.5,-565.5 314.5,-508.5 271.5,-508.5"/>
<text text-anchor="middle" x="293" y="-553.5" font-family="Helvetica,sans-Serif" font-size="10.00">object</text>
<polyline fill="none" stroke="#bfbfbf" points="271.5,-546.5 314.5,-546.5 "/>
<text text-anchor="middle" x="293" y="-534.5" font-family="Helvetica,sans-Serif" font-size="10.00"> </text>
<polyline fill="none" stroke="#bfbfbf" points="271.5,-527.5 314.5,-527.5 "/>
<text text-anchor="middle" x="293" y="-515.5" font-family="Helvetica,sans-Serif" font-size="10.00"> </text>
</g>
<!-- Node2&#45;&gt;Node1 -->
<g id="edge1" class="edge"><title>Node2&#45;&gt;Node1</title>
<path fill="none" stroke="midnightblue" d="M293,-498.156C293,-489.473 293,-480.232 293,-471.52"/>
<polygon fill="none" stroke="midnightblue" points="289.5,-498.398 293,-508.398 296.5,-498.398 289.5,-498.398"/>
</g>
<!-- Node4 -->
<g id="node4" class="node"><title>Node4</title>
<g id="a_node4"><a xlink:href="classcommunication_1_1__Transmitter.html" target="_top" xlink:title="{communication._Transmitter\n|&#45; _connection\l|+ __init__()\l+ connect()\l+ connection()\l}">
<polygon fill="none" stroke="black" points="66,-144 66,-223 206,-223 206,-144 66,-144"/>
<text text-anchor="middle" x="136" y="-211" font-family="Helvetica,sans-Serif" font-size="10.00">communication._Transmitter</text>
<polyline fill="none" stroke="black" points="66,-204 206,-204 "/>
<text text-anchor="start" x="74" y="-192" font-family="Helvetica,sans-Serif" font-size="10.00">&#45; _connection</text>
<polyline fill="none" stroke="black" points="66,-185 206,-185 "/>
<text text-anchor="start" x="74" y="-173" font-family="Helvetica,sans-Serif" font-size="10.00">+ __init__()</text>
<text text-anchor="start" x="74" y="-162" font-family="Helvetica,sans-Serif" font-size="10.00">+ connect()</text>
<text text-anchor="start" x="74" y="-151" font-family="Helvetica,sans-Serif" font-size="10.00">+ connection()</text>
</a>
</g>
</g>
<!-- Node3&#45;&gt;Node4 -->
<g id="edge3" class="edge"><title>Node3&#45;&gt;Node4</title>
<path fill="none" stroke="midnightblue" d="M250.046,-291.898C238.492,-282.419 226.121,-271.982 215,-262 201.274,-249.68 186.733,-235.701 173.918,-223.041"/>
<polygon fill="none" stroke="midnightblue" points="247.925,-294.685 257.888,-298.291 252.348,-289.26 247.925,-294.685"/>
</g>
<!-- Node7 -->
<g id="node7" class="node"><title>Node7</title>
<g id="a_node7"><a xlink:href="classcommunication_1_1Broadcaster.html" target="_top" xlink:title="{communication.Broadcaster\n|&#45; _publishers\l&#45; _subscribers\l&#45; _holding\l&#45; _listener\l&#45; _announcer\l|+ __init__()\l+ add_publisher()\l+ add_subscriber()\l+ collect()\l+ broadcast()\l+ run()\l}">
<polygon fill="none" stroke="black" points="224,-105.5 224,-261.5 362,-261.5 362,-105.5 224,-105.5"/>
<text text-anchor="middle" x="293" y="-249.5" font-family="Helvetica,sans-Serif" font-size="10.00">communication.Broadcaster</text>
<polyline fill="none" stroke="black" points="224,-242.5 362,-242.5 "/>
<text text-anchor="start" x="232" y="-230.5" font-family="Helvetica,sans-Serif" font-size="10.00">&#45; _publishers</text>
<text text-anchor="start" x="232" y="-219.5" font-family="Helvetica,sans-Serif" font-size="10.00">&#45; _subscribers</text>
<text text-anchor="start" x="232" y="-208.5" font-family="Helvetica,sans-Serif" font-size="10.00">&#45; _holding</text>
<text text-anchor="start" x="232" y="-197.5" font-family="Helvetica,sans-Serif" font-size="10.00">&#45; _listener</text>
<text text-anchor="start" x="232" y="-186.5" font-family="Helvetica,sans-Serif" font-size="10.00">&#45; _announcer</text>
<polyline fill="none" stroke="black" points="224,-179.5 362,-179.5 "/>
<text text-anchor="start" x="232" y="-167.5" font-family="Helvetica,sans-Serif" font-size="10.00">+ __init__()</text>
<text text-anchor="start" x="232" y="-156.5" font-family="Helvetica,sans-Serif" font-size="10.00">+ add_publisher()</text>
<text text-anchor="start" x="232" y="-145.5" font-family="Helvetica,sans-Serif" font-size="10.00">+ add_subscriber()</text>
<text text-anchor="start" x="232" y="-134.5" font-family="Helvetica,sans-Serif" font-size="10.00">+ collect()</text>
<text text-anchor="start" x="232" y="-123.5" font-family="Helvetica,sans-Serif" font-size="10.00">+ broadcast()</text>
<text text-anchor="start" x="232" y="-112.5" font-family="Helvetica,sans-Serif" font-size="10.00">+ run()</text>
</a>
</g>
</g>
<!-- Node3&#45;&gt;Node7 -->
<g id="edge6" class="edge"><title>Node3&#45;&gt;Node7</title>
<path fill="none" stroke="midnightblue" d="M293,-288.34C293,-280.044 293,-270.964 293,-261.736"/>
<polygon fill="none" stroke="midnightblue" points="289.5,-288.381 293,-298.381 296.5,-288.382 289.5,-288.381"/>
</g>
<!-- Node8 -->
<g id="node8" class="node"><title>Node8</title>
<g id="a_node8"><a xlink:href="classcommunication_1_1Message.html" target="_top" xlink:title="{communication.Message\n|&#45; _description\l&#45; _data\l|+ __init__()\l}">
<polygon fill="none" stroke="black" points="380.5,-149.5 380.5,-217.5 505.5,-217.5 505.5,-149.5 380.5,-149.5"/>
<text text-anchor="middle" x="443" y="-205.5" font-family="Helvetica,sans-Serif" font-size="10.00">communication.Message</text>
<polyline fill="none" stroke="black" points="380.5,-198.5 505.5,-198.5 "/>
<text text-anchor="start" x="388.5" y="-186.5" font-family="Helvetica,sans-Serif" font-size="10.00">&#45; _description</text>
<text text-anchor="start" x="388.5" y="-175.5" font-family="Helvetica,sans-Serif" font-size="10.00">&#45; _data</text>
<polyline fill="none" stroke="black" points="380.5,-168.5 505.5,-168.5 "/>
<text text-anchor="start" x="388.5" y="-156.5" font-family="Helvetica,sans-Serif" font-size="10.00">+ __init__()</text>
</a>
</g>
</g>
<!-- Node3&#45;&gt;Node8 -->
<g id="edge7" class="edge"><title>Node3&#45;&gt;Node8</title>
<path fill="none" stroke="midnightblue" d="M336.597,-291.967C348.054,-282.558 360.217,-272.14 371,-262 385.717,-248.161 401.08,-231.906 413.817,-217.866"/>
<polygon fill="none" stroke="midnightblue" points="334.355,-289.28 328.804,-298.304 338.771,-294.711 334.355,-289.28"/>
</g>
<!-- Node5 -->
<g id="node5" class="node"><title>Node5</title>
<g id="a_node5"><a xlink:href="classcommunication_1_1Publisher.html" target="_top" xlink:title="{communication.Publisher\n||+ produce()\l}">
<polygon fill="none" stroke="black" points="0,-6 0,-63 126,-63 126,-6 0,-6"/>
<text text-anchor="middle" x="63" y="-51" font-family="Helvetica,sans-Serif" font-size="10.00">communication.Publisher</text>
<polyline fill="none" stroke="black" points="0,-44 126,-44 "/>
<text text-anchor="middle" x="63" y="-32" font-family="Helvetica,sans-Serif" font-size="10.00"> </text>
<polyline fill="none" stroke="black" points="0,-25 126,-25 "/>
<text text-anchor="start" x="8" y="-13" font-family="Helvetica,sans-Serif" font-size="10.00">+ produce()</text>
</a>
</g>
</g>
<!-- Node4&#45;&gt;Node5 -->
<g id="edge4" class="edge"><title>Node4&#45;&gt;Node5</title>
<path fill="none" stroke="midnightblue" d="M112.261,-134.696C100.509,-111.032 86.7387,-83.3027 76.7495,-63.1873"/>
<polygon fill="none" stroke="midnightblue" points="109.238,-136.478 116.82,-143.877 115.507,-133.364 109.238,-136.478"/>
</g>
<!-- Node6 -->
<g id="node6" class="node"><title>Node6</title>
<g id="a_node6"><a xlink:href="classcommunication_1_1Subscriber.html" target="_top" xlink:title="{communication.Subscriber\n||+ listen()\l+ is_interested()\l}">
<polygon fill="none" stroke="black" points="144,-0.5 144,-68.5 276,-68.5 276,-0.5 144,-0.5"/>
<text text-anchor="middle" x="210" y="-56.5" font-family="Helvetica,sans-Serif" font-size="10.00">communication.Subscriber</text>
<polyline fill="none" stroke="black" points="144,-49.5 276,-49.5 "/>
<text text-anchor="middle" x="210" y="-37.5" font-family="Helvetica,sans-Serif" font-size="10.00"> </text>
<polyline fill="none" stroke="black" points="144,-30.5 276,-30.5 "/>
<text text-anchor="start" x="152" y="-18.5" font-family="Helvetica,sans-Serif" font-size="10.00">+ listen()</text>
<text text-anchor="start" x="152" y="-7.5" font-family="Helvetica,sans-Serif" font-size="10.00">+ is_interested()</text>
</a>
</g>
</g>
<!-- Node4&#45;&gt;Node6 -->
<g id="edge5" class="edge"><title>Node4&#45;&gt;Node6</title>
<path fill="none" stroke="midnightblue" d="M159.973,-134.877C170.82,-113.331 183.379,-88.3829 193.2,-68.8738"/>
<polygon fill="none" stroke="midnightblue" points="156.813,-133.372 155.443,-143.877 163.065,-136.519 156.813,-133.372"/>
</g>
</g>
</svg>
