<?xml version="1.0" encoding="UTF-8" standalone="no"?>
<!DOCTYPE svg PUBLIC "-//W3C//DTD SVG 1.1//EN"
 "http://www.w3.org/Graphics/SVG/1.1/DTD/svg11.dtd">
<!-- Generated by graphviz version 2.38.0 (20140413.2041)
 -->
<!-- Title: identity.Unique Pages: 1 -->
<svg width="99pt" height="276pt"
 viewBox="0.00 0.00 99.00 276.00" xmlns="http://www.w3.org/2000/svg" xmlns:xlink="http://www.w3.org/1999/xlink">
<g id="graph0" class="graph" transform="scale(1 1) rotate(0) translate(4 272)">
<title>identity.Unique</title>
<!-- Node1 -->
<g id="node1" class="node"><title>Node1</title>
<polygon fill="#bfbfbf" stroke="black" points="4.5,-0.5 4.5,-57.5 86.5,-57.5 86.5,-0.5 4.5,-0.5"/>
<text text-anchor="middle" x="45.5" y="-45.5" font-family="Helvetica,sans-Serif" font-size="10.00">identity.Unique</text>
<polyline fill="none" stroke="black" points="4.5,-38.5 86.5,-38.5 "/>
<text text-anchor="middle" x="45.5" y="-26.5" font-family="Helvetica,sans-Serif" font-size="10.00"> </text>
<polyline fill="none" stroke="black" points="4.5,-19.5 86.5,-19.5 "/>
<text text-anchor="start" x="12.5" y="-7.5" font-family="Helvetica,sans-Serif" font-size="10.00">+ __init__()</text>
</g>
<!-- Node2 -->
<g id="node2" class="node"><title>Node2</title>
<g id="a_node2"><a xlink:href="classidentity_1_1Identified.html" target="_top" xlink:title="{identity.Identified\n|&#45; __identity\l|+ __init__()\l+ __hash__()\l+ __eq__()\l}">
<polygon fill="none" stroke="black" points="0,-94.5 0,-173.5 91,-173.5 91,-94.5 0,-94.5"/>
<text text-anchor="middle" x="45.5" y="-161.5" font-family="Helvetica,sans-Serif" font-size="10.00">identity.Identified</text>
<polyline fill="none" stroke="black" points="0,-154.5 91,-154.5 "/>
<text text-anchor="start" x="8" y="-142.5" font-family="Helvetica,sans-Serif" font-size="10.00">&#45; __identity</text>
<polyline fill="none" stroke="black" points="0,-135.5 91,-135.5 "/>
<text text-anchor="start" x="8" y="-123.5" font-family="Helvetica,sans-Serif" font-size="10.00">+ __init__()</text>
<text text-anchor="start" x="8" y="-112.5" font-family="Helvetica,sans-Serif" font-size="10.00">+ __hash__()</text>
<text text-anchor="start" x="8" y="-101.5" font-family="Helvetica,sans-Serif" font-size="10.00">+ __eq__()</text>
</a>
</g>
</g>
<!-- Node2&#45;&gt;Node1 -->
<g id="edge1" class="edge"><title>Node2&#45;&gt;Node1</title>
<path fill="none" stroke="midnightblue" d="M45.5,-84.1628C45.5,-75.0404 45.5,-65.8063 45.5,-57.6095"/>
<polygon fill="none" stroke="midnightblue" points="42.0001,-84.3535 45.5,-94.3536 49.0001,-84.3536 42.0001,-84.3535"/>
</g>
<!-- Node3 -->
<g id="node3" class="node"><title>Node3</title>
<polygon fill="none" stroke="#bfbfbf" points="24,-210.5 24,-267.5 67,-267.5 67,-210.5 24,-210.5"/>
<text text-anchor="middle" x="45.5" y="-255.5" font-family="Helvetica,sans-Serif" font-size="10.00">object</text>
<polyline fill="none" stroke="#bfbfbf" points="24,-248.5 67,-248.5 "/>
<text text-anchor="middle" x="45.5" y="-236.5" font-family="Helvetica,sans-Serif" font-size="10.00"> </text>
<polyline fill="none" stroke="#bfbfbf" points="24,-229.5 67,-229.5 "/>
<text text-anchor="middle" x="45.5" y="-217.5" font-family="Helvetica,sans-Serif" font-size="10.00"> </text>
</g>
<!-- Node3&#45;&gt;Node2 -->
<g id="edge2" class="edge"><title>Node3&#45;&gt;Node2</title>
<path fill="none" stroke="midnightblue" d="M45.5,-200.156C45.5,-191.473 45.5,-182.232 45.5,-173.52"/>
<polygon fill="none" stroke="midnightblue" points="42.0001,-200.398 45.5,-210.398 49.0001,-200.398 42.0001,-200.398"/>
</g>
</g>
</svg>
