<?xml version="1.0" encoding="UTF-8" standalone="no"?>
<!DOCTYPE svg PUBLIC "-//W3C//DTD SVG 1.1//EN"
 "http://www.w3.org/Graphics/SVG/1.1/DTD/svg11.dtd">
<!-- Generated by graphviz version 2.38.0 (20140413.2041)
 -->
<!-- Title: communication.Message Pages: 1 -->
<svg width="133pt" height="381pt"
 viewBox="0.00 0.00 133.00 381.00" xmlns="http://www.w3.org/2000/svg" xmlns:xlink="http://www.w3.org/1999/xlink">
<g id="graph0" class="graph" transform="scale(1 1) rotate(0) translate(4 377)">
<title>communication.Message</title>
<!-- Node1 -->
<g id="node1" class="node"><title>Node1</title>
<polygon fill="#bfbfbf" stroke="black" points="-7.10543e-15,-0.5 -7.10543e-15,-68.5 125,-68.5 125,-0.5 -7.10543e-15,-0.5"/>
<text text-anchor="middle" x="62.5" y="-56.5" font-family="Helvetica,sans-Serif" font-size="10.00">communication.Message</text>
<polyline fill="none" stroke="black" points="-7.10543e-15,-49.5 125,-49.5 "/>
<text text-anchor="start" x="8" y="-37.5" font-family="Helvetica,sans-Serif" font-size="10.00">&#45; _description</text>
<text text-anchor="start" x="8" y="-26.5" font-family="Helvetica,sans-Serif" font-size="10.00">&#45; _data</text>
<polyline fill="none" stroke="black" points="-7.10543e-15,-19.5 125,-19.5 "/>
<text text-anchor="start" x="8" y="-7.5" font-family="Helvetica,sans-Serif" font-size="10.00">+ __init__()</text>
</g>
<!-- Node2 -->
<g id="node2" class="node"><title>Node2</title>
<g id="a_node2"><a xlink:href="classidentity_1_1Unique.html" target="_top" xlink:title="{identity.Unique\n||+ __init__()\l}">
<polygon fill="none" stroke="black" points="21.5,-105.5 21.5,-162.5 103.5,-162.5 103.5,-105.5 21.5,-105.5"/>
<text text-anchor="middle" x="62.5" y="-150.5" font-family="Helvetica,sans-Serif" font-size="10.00">identity.Unique</text>
<polyline fill="none" stroke="black" points="21.5,-143.5 103.5,-143.5 "/>
<text text-anchor="middle" x="62.5" y="-131.5" font-family="Helvetica,sans-Serif" font-size="10.00"> </text>
<polyline fill="none" stroke="black" points="21.5,-124.5 103.5,-124.5 "/>
<text text-anchor="start" x="29.5" y="-112.5" font-family="Helvetica,sans-Serif" font-size="10.00">+ __init__()</text>
</a>
</g>
</g>
<!-- Node2&#45;&gt;Node1 -->
<g id="edge1" class="edge"><title>Node2&#45;&gt;Node1</title>
<path fill="none" stroke="midnightblue" d="M62.5,-95.0631C62.5,-86.3933 62.5,-77.2431 62.5,-68.7855"/>
<polygon fill="none" stroke="midnightblue" points="59.0001,-95.3212 62.5,-105.321 66.0001,-95.3212 59.0001,-95.3212"/>
</g>
<!-- Node3 -->
<g id="node3" class="node"><title>Node3</title>
<g id="a_node3"><a xlink:href="classidentity_1_1Identified.html" target="_top" xlink:title="{identity.Identified\n|&#45; __identity\l|+ __init__()\l+ __hash__()\l+ __eq__()\l}">
<polygon fill="none" stroke="black" points="17,-199.5 17,-278.5 108,-278.5 108,-199.5 17,-199.5"/>
<text text-anchor="middle" x="62.5" y="-266.5" font-family="Helvetica,sans-Serif" font-size="10.00">identity.Identified</text>
<polyline fill="none" stroke="black" points="17,-259.5 108,-259.5 "/>
<text text-anchor="start" x="25" y="-247.5" font-family="Helvetica,sans-Serif" font-size="10.00">&#45; __identity</text>
<polyline fill="none" stroke="black" points="17,-240.5 108,-240.5 "/>
<text text-anchor="start" x="25" y="-228.5" font-family="Helvetica,sans-Serif" font-size="10.00">+ __init__()</text>
<text text-anchor="start" x="25" y="-217.5" font-family="Helvetica,sans-Serif" font-size="10.00">+ __hash__()</text>
<text text-anchor="start" x="25" y="-206.5" font-family="Helvetica,sans-Serif" font-size="10.00">+ __eq__()</text>
</a>
</g>
</g>
<!-- Node3&#45;&gt;Node2 -->
<g id="edge2" class="edge"><title>Node3&#45;&gt;Node2</title>
<path fill="none" stroke="midnightblue" d="M62.5,-189.163C62.5,-180.04 62.5,-170.806 62.5,-162.61"/>
<polygon fill="none" stroke="midnightblue" points="59.0001,-189.354 62.5,-199.354 66.0001,-189.354 59.0001,-189.354"/>
</g>
<!-- Node4 -->
<g id="node4" class="node"><title>Node4</title>
<polygon fill="none" stroke="#bfbfbf" points="41,-315.5 41,-372.5 84,-372.5 84,-315.5 41,-315.5"/>
<text text-anchor="middle" x="62.5" y="-360.5" font-family="Helvetica,sans-Serif" font-size="10.00">object</text>
<polyline fill="none" stroke="#bfbfbf" points="41,-353.5 84,-353.5 "/>
<text text-anchor="middle" x="62.5" y="-341.5" font-family="Helvetica,sans-Serif" font-size="10.00"> </text>
<polyline fill="none" stroke="#bfbfbf" points="41,-334.5 84,-334.5 "/>
<text text-anchor="middle" x="62.5" y="-322.5" font-family="Helvetica,sans-Serif" font-size="10.00"> </text>
</g>
<!-- Node4&#45;&gt;Node3 -->
<g id="edge3" class="edge"><title>Node4&#45;&gt;Node3</title>
<path fill="none" stroke="midnightblue" d="M62.5,-305.156C62.5,-296.473 62.5,-287.232 62.5,-278.52"/>
<polygon fill="none" stroke="midnightblue" points="59.0001,-305.398 62.5,-315.398 66.0001,-305.398 59.0001,-305.398"/>
</g>
</g>
</svg>
