<?xml version="1.0" encoding="UTF-8" standalone="no"?>
<!DOCTYPE svg PUBLIC "-//W3C//DTD SVG 1.1//EN"
 "http://www.w3.org/Graphics/SVG/1.1/DTD/svg11.dtd">
<!-- Generated by graphviz version 2.38.0 (20140413.2041)
 -->
<!-- Title: communication._Transmitter Pages: 1 -->
<svg width="284pt" height="497pt"
 viewBox="0.00 0.00 284.00 497.00" xmlns="http://www.w3.org/2000/svg" xmlns:xlink="http://www.w3.org/1999/xlink">
<g id="graph0" class="graph" transform="scale(1 1) rotate(0) translate(4 493)">
<title>communication._Transmitter</title>
<!-- Node1 -->
<g id="node1" class="node"><title>Node1</title>
<polygon fill="#bfbfbf" stroke="black" points="66,-105.5 66,-184.5 206,-184.5 206,-105.5 66,-105.5"/>
<text text-anchor="middle" x="136" y="-172.5" font-family="Helvetica,sans-Serif" font-size="10.00">communication._Transmitter</text>
<polyline fill="none" stroke="black" points="66,-165.5 206,-165.5 "/>
<text text-anchor="start" x="74" y="-153.5" font-family="Helvetica,sans-Serif" font-size="10.00">&#45; _connection</text>
<polyline fill="none" stroke="black" points="66,-146.5 206,-146.5 "/>
<text text-anchor="start" x="74" y="-134.5" font-family="Helvetica,sans-Serif" font-size="10.00">+ __init__()</text>
<text text-anchor="start" x="74" y="-123.5" font-family="Helvetica,sans-Serif" font-size="10.00">+ connect()</text>
<text text-anchor="start" x="74" y="-112.5" font-family="Helvetica,sans-Serif" font-size="10.00">+ connection()</text>
</g>
<!-- Node5 -->
<g id="node5" class="node"><title>Node5</title>
<g id="a_node5"><a xlink:href="classcommunication_1_1Publisher.html" target="_top" xlink:title="{communication.Publisher\n||+ produce()\l}">
<polygon fill="none" stroke="black" points="0,-6 0,-63 126,-63 126,-6 0,-6"/>
<text text-anchor="middle" x="63" y="-51" font-family="Helvetica,sans-Serif" font-size="10.00">communication.Publisher</text>
<polyline fill="none" stroke="black" points="0,-44 126,-44 "/>
<text text-anchor="middle" x="63" y="-32" font-family="Helvetica,sans-Serif" font-size="10.00"> </text>
<polyline fill="none" stroke="black" points="0,-25 126,-25 "/>
<text text-anchor="start" x="8" y="-13" font-family="Helvetica,sans-Serif" font-size="10.00">+ produce()</text>
</a>
</g>
</g>
<!-- Node1&#45;&gt;Node5 -->
<g id="edge4" class="edge"><title>Node1&#45;&gt;Node5</title>
<path fill="none" stroke="midnightblue" d="M104.438,-97.0893C96.617,-85.465 88.4878,-73.3826 81.5227,-63.0304"/>
<polygon fill="none" stroke="midnightblue" points="101.571,-99.0983 110.057,-105.441 107.379,-95.1907 101.571,-99.0983"/>
</g>
<!-- Node6 -->
<g id="node6" class="node"><title>Node6</title>
<g id="a_node6"><a xlink:href="classcommunication_1_1Subscriber.html" target="_top" xlink:title="{communication.Subscriber\n||+ listen()\l+ is_interested()\l}">
<polygon fill="none" stroke="black" points="144,-0.5 144,-68.5 276,-68.5 276,-0.5 144,-0.5"/>
<text text-anchor="middle" x="210" y="-56.5" font-family="Helvetica,sans-Serif" font-size="10.00">communication.Subscriber</text>
<polyline fill="none" stroke="black" points="144,-49.5 276,-49.5 "/>
<text text-anchor="middle" x="210" y="-37.5" font-family="Helvetica,sans-Serif" font-size="10.00"> </text>
<polyline fill="none" stroke="black" points="144,-30.5 276,-30.5 "/>
<text text-anchor="start" x="152" y="-18.5" font-family="Helvetica,sans-Serif" font-size="10.00">+ listen()</text>
<text text-anchor="start" x="152" y="-7.5" font-family="Helvetica,sans-Serif" font-size="10.00">+ is_interested()</text>
</a>
</g>
</g>
<!-- Node1&#45;&gt;Node6 -->
<g id="edge5" class="edge"><title>Node1&#45;&gt;Node6</title>
<path fill="none" stroke="midnightblue" d="M167.986,-97.1011C174.546,-87.4829 181.32,-77.5507 187.463,-68.5439"/>
<polygon fill="none" stroke="midnightblue" points="165.041,-95.2079 162.298,-105.441 170.824,-99.1521 165.041,-95.2079"/>
</g>
<!-- Node2 -->
<g id="node2" class="node"><title>Node2</title>
<g id="a_node2"><a xlink:href="classidentity_1_1Unique.html" target="_top" xlink:title="{identity.Unique\n||+ __init__()\l}">
<polygon fill="none" stroke="black" points="95,-221.5 95,-278.5 177,-278.5 177,-221.5 95,-221.5"/>
<text text-anchor="middle" x="136" y="-266.5" font-family="Helvetica,sans-Serif" font-size="10.00">identity.Unique</text>
<polyline fill="none" stroke="black" points="95,-259.5 177,-259.5 "/>
<text text-anchor="middle" x="136" y="-247.5" font-family="Helvetica,sans-Serif" font-size="10.00"> </text>
<polyline fill="none" stroke="black" points="95,-240.5 177,-240.5 "/>
<text text-anchor="start" x="103" y="-228.5" font-family="Helvetica,sans-Serif" font-size="10.00">+ __init__()</text>
</a>
</g>
</g>
<!-- Node2&#45;&gt;Node1 -->
<g id="edge1" class="edge"><title>Node2&#45;&gt;Node1</title>
<path fill="none" stroke="midnightblue" d="M136,-211.156C136,-202.473 136,-193.232 136,-184.52"/>
<polygon fill="none" stroke="midnightblue" points="132.5,-211.398 136,-221.398 139.5,-211.398 132.5,-211.398"/>
</g>
<!-- Node3 -->
<g id="node3" class="node"><title>Node3</title>
<g id="a_node3"><a xlink:href="classidentity_1_1Identified.html" target="_top" xlink:title="{identity.Identified\n|&#45; __identity\l|+ __init__()\l+ __hash__()\l+ __eq__()\l}">
<polygon fill="none" stroke="black" points="90.5,-315.5 90.5,-394.5 181.5,-394.5 181.5,-315.5 90.5,-315.5"/>
<text text-anchor="middle" x="136" y="-382.5" font-family="Helvetica,sans-Serif" font-size="10.00">identity.Identified</text>
<polyline fill="none" stroke="black" points="90.5,-375.5 181.5,-375.5 "/>
<text text-anchor="start" x="98.5" y="-363.5" font-family="Helvetica,sans-Serif" font-size="10.00">&#45; __identity</text>
<polyline fill="none" stroke="black" points="90.5,-356.5 181.5,-356.5 "/>
<text text-anchor="start" x="98.5" y="-344.5" font-family="Helvetica,sans-Serif" font-size="10.00">+ __init__()</text>
<text text-anchor="start" x="98.5" y="-333.5" font-family="Helvetica,sans-Serif" font-size="10.00">+ __hash__()</text>
<text text-anchor="start" x="98.5" y="-322.5" font-family="Helvetica,sans-Serif" font-size="10.00">+ __eq__()</text>
</a>
</g>
</g>
<!-- Node3&#45;&gt;Node2 -->
<g id="edge2" class="edge"><title>Node3&#45;&gt;Node2</title>
<path fill="none" stroke="midnightblue" d="M136,-305.163C136,-296.04 136,-286.806 136,-278.61"/>
<polygon fill="none" stroke="midnightblue" points="132.5,-305.354 136,-315.354 139.5,-305.354 132.5,-305.354"/>
</g>
<!-- Node4 -->
<g id="node4" class="node"><title>Node4</title>
<polygon fill="none" stroke="#bfbfbf" points="114.5,-431.5 114.5,-488.5 157.5,-488.5 157.5,-431.5 114.5,-431.5"/>
<text text-anchor="middle" x="136" y="-476.5" font-family="Helvetica,sans-Serif" font-size="10.00">object</text>
<polyline fill="none" stroke="#bfbfbf" points="114.5,-469.5 157.5,-469.5 "/>
<text text-anchor="middle" x="136" y="-457.5" font-family="Helvetica,sans-Serif" font-size="10.00"> </text>
<polyline fill="none" stroke="#bfbfbf" points="114.5,-450.5 157.5,-450.5 "/>
<text text-anchor="middle" x="136" y="-438.5" font-family="Helvetica,sans-Serif" font-size="10.00"> </text>
</g>
<!-- Node4&#45;&gt;Node3 -->
<g id="edge3" class="edge"><title>Node4&#45;&gt;Node3</title>
<path fill="none" stroke="midnightblue" d="M136,-421.156C136,-412.473 136,-403.232 136,-394.52"/>
<polygon fill="none" stroke="midnightblue" points="132.5,-421.398 136,-431.398 139.5,-421.398 132.5,-421.398"/>
</g>
</g>
</svg>
