<?xml version="1.0" encoding="UTF-8" standalone="no"?>
<!DOCTYPE svg PUBLIC "-//W3C//DTD SVG 1.1//EN"
 "http://www.w3.org/Graphics/SVG/1.1/DTD/svg11.dtd">
<!-- Generated by graphviz version 2.38.0 (20140413.2041)
 -->
<!-- Title: communication._Transmitter Pages: 1 -->
<svg width="148pt" height="392pt"
 viewBox="0.00 0.00 148.00 392.00" xmlns="http://www.w3.org/2000/svg" xmlns:xlink="http://www.w3.org/1999/xlink">
<g id="graph0" class="graph" transform="scale(1 1) rotate(0) translate(4 388)">
<title>communication._Transmitter</title>
<!-- Node1 -->
<g id="node1" class="node"><title>Node1</title>
<polygon fill="#bfbfbf" stroke="black" points="0,-0.5 0,-79.5 140,-79.5 140,-0.5 0,-0.5"/>
<text text-anchor="middle" x="70" y="-67.5" font-family="Helvetica,sans-Serif" font-size="10.00">communication._Transmitter</text>
<polyline fill="none" stroke="black" points="0,-60.5 140,-60.5 "/>
<text text-anchor="start" x="8" y="-48.5" font-family="Helvetica,sans-Serif" font-size="10.00">&#45; _connection</text>
<polyline fill="none" stroke="black" points="0,-41.5 140,-41.5 "/>
<text text-anchor="start" x="8" y="-29.5" font-family="Helvetica,sans-Serif" font-size="10.00">+ __init__()</text>
<text text-anchor="start" x="8" y="-18.5" font-family="Helvetica,sans-Serif" font-size="10.00">+ connect()</text>
<text text-anchor="start" x="8" y="-7.5" font-family="Helvetica,sans-Serif" font-size="10.00">+ connection()</text>
</g>
<!-- Node2 -->
<g id="node2" class="node"><title>Node2</title>
<g id="a_node2"><a xlink:href="classidentity_1_1Unique.html" target="_top" xlink:title="{identity.Unique\n||+ __init__()\l}">
<polygon fill="none" stroke="black" points="29,-116.5 29,-173.5 111,-173.5 111,-116.5 29,-116.5"/>
<text text-anchor="middle" x="70" y="-161.5" font-family="Helvetica,sans-Serif" font-size="10.00">identity.Unique</text>
<polyline fill="none" stroke="black" points="29,-154.5 111,-154.5 "/>
<text text-anchor="middle" x="70" y="-142.5" font-family="Helvetica,sans-Serif" font-size="10.00"> </text>
<polyline fill="none" stroke="black" points="29,-135.5 111,-135.5 "/>
<text text-anchor="start" x="37" y="-123.5" font-family="Helvetica,sans-Serif" font-size="10.00">+ __init__()</text>
</a>
</g>
</g>
<!-- Node2&#45;&gt;Node1 -->
<g id="edge1" class="edge"><title>Node2&#45;&gt;Node1</title>
<path fill="none" stroke="midnightblue" d="M70,-106.156C70,-97.4733 70,-88.2318 70,-79.5205"/>
<polygon fill="none" stroke="midnightblue" points="66.5001,-106.398 70,-116.398 73.5001,-106.398 66.5001,-106.398"/>
</g>
<!-- Node3 -->
<g id="node3" class="node"><title>Node3</title>
<g id="a_node3"><a xlink:href="classidentity_1_1Identified.html" target="_top" xlink:title="{identity.Identified\n|&#45; __identity\l|+ __init__()\l+ __hash__()\l+ __eq__()\l}">
<polygon fill="none" stroke="black" points="24.5,-210.5 24.5,-289.5 115.5,-289.5 115.5,-210.5 24.5,-210.5"/>
<text text-anchor="middle" x="70" y="-277.5" font-family="Helvetica,sans-Serif" font-size="10.00">identity.Identified</text>
<polyline fill="none" stroke="black" points="24.5,-270.5 115.5,-270.5 "/>
<text text-anchor="start" x="32.5" y="-258.5" font-family="Helvetica,sans-Serif" font-size="10.00">&#45; __identity</text>
<polyline fill="none" stroke="black" points="24.5,-251.5 115.5,-251.5 "/>
<text text-anchor="start" x="32.5" y="-239.5" font-family="Helvetica,sans-Serif" font-size="10.00">+ __init__()</text>
<text text-anchor="start" x="32.5" y="-228.5" font-family="Helvetica,sans-Serif" font-size="10.00">+ __hash__()</text>
<text text-anchor="start" x="32.5" y="-217.5" font-family="Helvetica,sans-Serif" font-size="10.00">+ __eq__()</text>
</a>
</g>
</g>
<!-- Node3&#45;&gt;Node2 -->
<g id="edge2" class="edge"><title>Node3&#45;&gt;Node2</title>
<path fill="none" stroke="midnightblue" d="M70,-200.163C70,-191.04 70,-181.806 70,-173.61"/>
<polygon fill="none" stroke="midnightblue" points="66.5001,-200.354 70,-210.354 73.5001,-200.354 66.5001,-200.354"/>
</g>
<!-- Node4 -->
<g id="node4" class="node"><title>Node4</title>
<polygon fill="none" stroke="#bfbfbf" points="48.5,-326.5 48.5,-383.5 91.5,-383.5 91.5,-326.5 48.5,-326.5"/>
<text text-anchor="middle" x="70" y="-371.5" font-family="Helvetica,sans-Serif" font-size="10.00">object</text>
<polyline fill="none" stroke="#bfbfbf" points="48.5,-364.5 91.5,-364.5 "/>
<text text-anchor="middle" x="70" y="-352.5" font-family="Helvetica,sans-Serif" font-size="10.00"> </text>
<polyline fill="none" stroke="#bfbfbf" points="48.5,-345.5 91.5,-345.5 "/>
<text text-anchor="middle" x="70" y="-333.5" font-family="Helvetica,sans-Serif" font-size="10.00"> </text>
</g>
<!-- Node4&#45;&gt;Node3 -->
<g id="edge3" class="edge"><title>Node4&#45;&gt;Node3</title>
<path fill="none" stroke="midnightblue" d="M70,-316.156C70,-307.473 70,-298.232 70,-289.52"/>
<polygon fill="none" stroke="midnightblue" points="66.5001,-316.398 70,-326.398 73.5001,-316.398 66.5001,-316.398"/>
</g>
</g>
</svg>
