<?xml version="1.0" encoding="UTF-8" standalone="no"?>
<!DOCTYPE svg PUBLIC "-//W3C//DTD SVG 1.1//EN"
 "http://www.w3.org/Graphics/SVG/1.1/DTD/svg11.dtd">
<!-- Generated by graphviz version 2.38.0 (20140413.2041)
 -->
<!-- Title: morunner.communication.Subscriber Pages: 1 -->
<svg width="184pt" height="508pt"
 viewBox="0.00 0.00 184.00 508.00" xmlns="http://www.w3.org/2000/svg" xmlns:xlink="http://www.w3.org/1999/xlink">
<g id="graph0" class="graph" transform="scale(1 1) rotate(0) translate(4 504)">
<title>morunner.communication.Subscriber</title>
<!-- Node1 -->
<g id="node1" class="node"><title>Node1</title>
<polygon fill="#bfbfbf" stroke="black" points="-1.42109e-14,-0.5 -1.42109e-14,-68.5 176,-68.5 176,-0.5 -1.42109e-14,-0.5"/>
<text text-anchor="middle" x="88" y="-56.5" font-family="Helvetica,sans-Serif" font-size="10.00">morunner.communication.Subscriber</text>
<polyline fill="none" stroke="black" points="-1.42109e-14,-49.5 176,-49.5 "/>
<text text-anchor="middle" x="88" y="-37.5" font-family="Helvetica,sans-Serif" font-size="10.00"> </text>
<polyline fill="none" stroke="black" points="-1.42109e-14,-30.5 176,-30.5 "/>
<text text-anchor="start" x="8" y="-18.5" font-family="Helvetica,sans-Serif" font-size="10.00">+ listen()</text>
<text text-anchor="start" x="8" y="-7.5" font-family="Helvetica,sans-Serif" font-size="10.00">+ is_interested()</text>
</g>
<!-- Node2 -->
<g id="node2" class="node"><title>Node2</title>
<g id="a_node2"><a xlink:href="classmorunner_1_1communication_1_1__Transmitter.html" target="_top" xlink:title="{morunner.communication.\l_Transmitter\n|&#45; _connection\l|+ __init__()\l+ connect()\l+ connection()\l}">
<polygon fill="none" stroke="black" points="23.5,-105.5 23.5,-195.5 152.5,-195.5 152.5,-105.5 23.5,-105.5"/>
<text text-anchor="start" x="31.5" y="-183.5" font-family="Helvetica,sans-Serif" font-size="10.00">morunner.communication.</text>
<text text-anchor="middle" x="88" y="-172.5" font-family="Helvetica,sans-Serif" font-size="10.00">_Transmitter</text>
<polyline fill="none" stroke="black" points="23.5,-165.5 152.5,-165.5 "/>
<text text-anchor="start" x="31.5" y="-153.5" font-family="Helvetica,sans-Serif" font-size="10.00">&#45; _connection</text>
<polyline fill="none" stroke="black" points="23.5,-146.5 152.5,-146.5 "/>
<text text-anchor="start" x="31.5" y="-134.5" font-family="Helvetica,sans-Serif" font-size="10.00">+ __init__()</text>
<text text-anchor="start" x="31.5" y="-123.5" font-family="Helvetica,sans-Serif" font-size="10.00">+ connect()</text>
<text text-anchor="start" x="31.5" y="-112.5" font-family="Helvetica,sans-Serif" font-size="10.00">+ connection()</text>
</a>
</g>
</g>
<!-- Node2&#45;&gt;Node1 -->
<g id="edge1" class="edge"><title>Node2&#45;&gt;Node1</title>
<path fill="none" stroke="midnightblue" d="M88,-95.3164C88,-86.2849 88,-77.1589 88,-68.8483"/>
<polygon fill="none" stroke="midnightblue" points="84.5001,-95.4246 88,-105.425 91.5001,-95.4247 84.5001,-95.4246"/>
</g>
<!-- Node3 -->
<g id="node3" class="node"><title>Node3</title>
<g id="a_node3"><a xlink:href="classmorunner_1_1identity_1_1Unique.html" target="_top" xlink:title="{morunner.identity.Unique\n||+ __init__()\l}">
<polygon fill="none" stroke="black" points="25.5,-232.5 25.5,-289.5 150.5,-289.5 150.5,-232.5 25.5,-232.5"/>
<text text-anchor="middle" x="88" y="-277.5" font-family="Helvetica,sans-Serif" font-size="10.00">morunner.identity.Unique</text>
<polyline fill="none" stroke="black" points="25.5,-270.5 150.5,-270.5 "/>
<text text-anchor="middle" x="88" y="-258.5" font-family="Helvetica,sans-Serif" font-size="10.00"> </text>
<polyline fill="none" stroke="black" points="25.5,-251.5 150.5,-251.5 "/>
<text text-anchor="start" x="33.5" y="-239.5" font-family="Helvetica,sans-Serif" font-size="10.00">+ __init__()</text>
</a>
</g>
</g>
<!-- Node3&#45;&gt;Node2 -->
<g id="edge2" class="edge"><title>Node3&#45;&gt;Node2</title>
<path fill="none" stroke="midnightblue" d="M88,-222.214C88,-213.609 88,-204.394 88,-195.554"/>
<polygon fill="none" stroke="midnightblue" points="84.5001,-222.34 88,-232.34 91.5001,-222.34 84.5001,-222.34"/>
</g>
<!-- Node4 -->
<g id="node4" class="node"><title>Node4</title>
<g id="a_node4"><a xlink:href="classmorunner_1_1identity_1_1Identified.html" target="_top" xlink:title="{morunner.identity.Identified\n|&#45; __identity\l|+ __init__()\l+ __hash__()\l+ __eq__()\l}">
<polygon fill="none" stroke="black" points="21,-326.5 21,-405.5 155,-405.5 155,-326.5 21,-326.5"/>
<text text-anchor="middle" x="88" y="-393.5" font-family="Helvetica,sans-Serif" font-size="10.00">morunner.identity.Identified</text>
<polyline fill="none" stroke="black" points="21,-386.5 155,-386.5 "/>
<text text-anchor="start" x="29" y="-374.5" font-family="Helvetica,sans-Serif" font-size="10.00">&#45; __identity</text>
<polyline fill="none" stroke="black" points="21,-367.5 155,-367.5 "/>
<text text-anchor="start" x="29" y="-355.5" font-family="Helvetica,sans-Serif" font-size="10.00">+ __init__()</text>
<text text-anchor="start" x="29" y="-344.5" font-family="Helvetica,sans-Serif" font-size="10.00">+ __hash__()</text>
<text text-anchor="start" x="29" y="-333.5" font-family="Helvetica,sans-Serif" font-size="10.00">+ __eq__()</text>
</a>
</g>
</g>
<!-- Node4&#45;&gt;Node3 -->
<g id="edge3" class="edge"><title>Node4&#45;&gt;Node3</title>
<path fill="none" stroke="midnightblue" d="M88,-316.163C88,-307.04 88,-297.806 88,-289.61"/>
<polygon fill="none" stroke="midnightblue" points="84.5001,-316.354 88,-326.354 91.5001,-316.354 84.5001,-316.354"/>
</g>
<!-- Node5 -->
<g id="node5" class="node"><title>Node5</title>
<polygon fill="none" stroke="#bfbfbf" points="66.5,-442.5 66.5,-499.5 109.5,-499.5 109.5,-442.5 66.5,-442.5"/>
<text text-anchor="middle" x="88" y="-487.5" font-family="Helvetica,sans-Serif" font-size="10.00">object</text>
<polyline fill="none" stroke="#bfbfbf" points="66.5,-480.5 109.5,-480.5 "/>
<text text-anchor="middle" x="88" y="-468.5" font-family="Helvetica,sans-Serif" font-size="10.00"> </text>
<polyline fill="none" stroke="#bfbfbf" points="66.5,-461.5 109.5,-461.5 "/>
<text text-anchor="middle" x="88" y="-449.5" font-family="Helvetica,sans-Serif" font-size="10.00"> </text>
</g>
<!-- Node5&#45;&gt;Node4 -->
<g id="edge4" class="edge"><title>Node5&#45;&gt;Node4</title>
<path fill="none" stroke="midnightblue" d="M88,-432.156C88,-423.473 88,-414.232 88,-405.52"/>
<polygon fill="none" stroke="midnightblue" points="84.5001,-432.398 88,-442.398 91.5001,-432.398 84.5001,-432.398"/>
</g>
</g>
</svg>
