<?xml version="1.0" encoding="UTF-8" standalone="no"?>
<!DOCTYPE svg PUBLIC "-//W3C//DTD SVG 1.1//EN"
 "http://www.w3.org/Graphics/SVG/1.1/DTD/svg11.dtd">
<!-- Generated by graphviz version 2.38.0 (20140413.2041)
 -->
<!-- Title: runner.communication.Subscriber Pages: 1 -->
<svg width="170pt" height="508pt"
 viewBox="0.00 0.00 170.00 508.00" xmlns="http://www.w3.org/2000/svg" xmlns:xlink="http://www.w3.org/1999/xlink">
<g id="graph0" class="graph" transform="scale(1 1) rotate(0) translate(4 504)">
<title>runner.communication.Subscriber</title>
<!-- Node1 -->
<g id="node1" class="node"><title>Node1</title>
<polygon fill="#bfbfbf" stroke="black" points="0,-0.5 0,-68.5 162,-68.5 162,-0.5 0,-0.5"/>
<text text-anchor="middle" x="81" y="-56.5" font-family="Helvetica,sans-Serif" font-size="10.00">runner.communication.Subscriber</text>
<polyline fill="none" stroke="black" points="0,-49.5 162,-49.5 "/>
<text text-anchor="middle" x="81" y="-37.5" font-family="Helvetica,sans-Serif" font-size="10.00"> </text>
<polyline fill="none" stroke="black" points="0,-30.5 162,-30.5 "/>
<text text-anchor="start" x="8" y="-18.5" font-family="Helvetica,sans-Serif" font-size="10.00">+ listen()</text>
<text text-anchor="start" x="8" y="-7.5" font-family="Helvetica,sans-Serif" font-size="10.00">+ is_interested()</text>
</g>
<!-- Node2 -->
<g id="node2" class="node"><title>Node2</title>
<g id="a_node2"><a xlink:href="classrunner_1_1communication_1_1__Transmitter.html" target="_top" xlink:title="{runner.communication.\l_Transmitter\n|&#45; _connection\l|+ __init__()\l+ connect()\l+ connection()\l}">
<polygon fill="none" stroke="black" points="23,-105.5 23,-195.5 139,-195.5 139,-105.5 23,-105.5"/>
<text text-anchor="start" x="31" y="-183.5" font-family="Helvetica,sans-Serif" font-size="10.00">runner.communication.</text>
<text text-anchor="middle" x="81" y="-172.5" font-family="Helvetica,sans-Serif" font-size="10.00">_Transmitter</text>
<polyline fill="none" stroke="black" points="23,-165.5 139,-165.5 "/>
<text text-anchor="start" x="31" y="-153.5" font-family="Helvetica,sans-Serif" font-size="10.00">&#45; _connection</text>
<polyline fill="none" stroke="black" points="23,-146.5 139,-146.5 "/>
<text text-anchor="start" x="31" y="-134.5" font-family="Helvetica,sans-Serif" font-size="10.00">+ __init__()</text>
<text text-anchor="start" x="31" y="-123.5" font-family="Helvetica,sans-Serif" font-size="10.00">+ connect()</text>
<text text-anchor="start" x="31" y="-112.5" font-family="Helvetica,sans-Serif" font-size="10.00">+ connection()</text>
</a>
</g>
</g>
<!-- Node2&#45;&gt;Node1 -->
<g id="edge1" class="edge"><title>Node2&#45;&gt;Node1</title>
<path fill="none" stroke="midnightblue" d="M81,-95.3164C81,-86.2849 81,-77.1589 81,-68.8483"/>
<polygon fill="none" stroke="midnightblue" points="77.5001,-95.4246 81,-105.425 84.5001,-95.4247 77.5001,-95.4246"/>
</g>
<!-- Node3 -->
<g id="node3" class="node"><title>Node3</title>
<g id="a_node3"><a xlink:href="classrunner_1_1identity_1_1Unique.html" target="_top" xlink:title="{runner.identity.Unique\n||+ __init__()\l}">
<polygon fill="none" stroke="black" points="25,-232.5 25,-289.5 137,-289.5 137,-232.5 25,-232.5"/>
<text text-anchor="middle" x="81" y="-277.5" font-family="Helvetica,sans-Serif" font-size="10.00">runner.identity.Unique</text>
<polyline fill="none" stroke="black" points="25,-270.5 137,-270.5 "/>
<text text-anchor="middle" x="81" y="-258.5" font-family="Helvetica,sans-Serif" font-size="10.00"> </text>
<polyline fill="none" stroke="black" points="25,-251.5 137,-251.5 "/>
<text text-anchor="start" x="33" y="-239.5" font-family="Helvetica,sans-Serif" font-size="10.00">+ __init__()</text>
</a>
</g>
</g>
<!-- Node3&#45;&gt;Node2 -->
<g id="edge2" class="edge"><title>Node3&#45;&gt;Node2</title>
<path fill="none" stroke="midnightblue" d="M81,-222.214C81,-213.609 81,-204.394 81,-195.554"/>
<polygon fill="none" stroke="midnightblue" points="77.5001,-222.34 81,-232.34 84.5001,-222.34 77.5001,-222.34"/>
</g>
<!-- Node4 -->
<g id="node4" class="node"><title>Node4</title>
<g id="a_node4"><a xlink:href="classrunner_1_1identity_1_1Identified.html" target="_top" xlink:title="{runner.identity.Identified\n|&#45; __identity\l|+ __init__()\l+ __hash__()\l+ __eq__()\l}">
<polygon fill="none" stroke="black" points="20.5,-326.5 20.5,-405.5 141.5,-405.5 141.5,-326.5 20.5,-326.5"/>
<text text-anchor="middle" x="81" y="-393.5" font-family="Helvetica,sans-Serif" font-size="10.00">runner.identity.Identified</text>
<polyline fill="none" stroke="black" points="20.5,-386.5 141.5,-386.5 "/>
<text text-anchor="start" x="28.5" y="-374.5" font-family="Helvetica,sans-Serif" font-size="10.00">&#45; __identity</text>
<polyline fill="none" stroke="black" points="20.5,-367.5 141.5,-367.5 "/>
<text text-anchor="start" x="28.5" y="-355.5" font-family="Helvetica,sans-Serif" font-size="10.00">+ __init__()</text>
<text text-anchor="start" x="28.5" y="-344.5" font-family="Helvetica,sans-Serif" font-size="10.00">+ __hash__()</text>
<text text-anchor="start" x="28.5" y="-333.5" font-family="Helvetica,sans-Serif" font-size="10.00">+ __eq__()</text>
</a>
</g>
</g>
<!-- Node4&#45;&gt;Node3 -->
<g id="edge3" class="edge"><title>Node4&#45;&gt;Node3</title>
<path fill="none" stroke="midnightblue" d="M81,-316.163C81,-307.04 81,-297.806 81,-289.61"/>
<polygon fill="none" stroke="midnightblue" points="77.5001,-316.354 81,-326.354 84.5001,-316.354 77.5001,-316.354"/>
</g>
<!-- Node5 -->
<g id="node5" class="node"><title>Node5</title>
<polygon fill="none" stroke="#bfbfbf" points="59.5,-442.5 59.5,-499.5 102.5,-499.5 102.5,-442.5 59.5,-442.5"/>
<text text-anchor="middle" x="81" y="-487.5" font-family="Helvetica,sans-Serif" font-size="10.00">object</text>
<polyline fill="none" stroke="#bfbfbf" points="59.5,-480.5 102.5,-480.5 "/>
<text text-anchor="middle" x="81" y="-468.5" font-family="Helvetica,sans-Serif" font-size="10.00"> </text>
<polyline fill="none" stroke="#bfbfbf" points="59.5,-461.5 102.5,-461.5 "/>
<text text-anchor="middle" x="81" y="-449.5" font-family="Helvetica,sans-Serif" font-size="10.00"> </text>
</g>
<!-- Node5&#45;&gt;Node4 -->
<g id="edge4" class="edge"><title>Node5&#45;&gt;Node4</title>
<path fill="none" stroke="midnightblue" d="M81,-432.156C81,-423.473 81,-414.232 81,-405.52"/>
<polygon fill="none" stroke="midnightblue" points="77.5001,-432.398 81,-442.398 84.5001,-432.398 77.5001,-432.398"/>
</g>
</g>
</svg>
