<?xml version="1.0" encoding="UTF-8" standalone="no"?>
<!DOCTYPE svg PUBLIC "-//W3C//DTD SVG 1.1//EN"
 "http://www.w3.org/Graphics/SVG/1.1/DTD/svg11.dtd">
<!-- Generated by graphviz version 2.38.0 (20140413.2041)
 -->
<!-- Title: morunner.communication.Publisher Pages: 1 -->
<svg width="178pt" height="497pt"
 viewBox="0.00 0.00 178.00 497.00" xmlns="http://www.w3.org/2000/svg" xmlns:xlink="http://www.w3.org/1999/xlink">
<g id="graph0" class="graph" transform="scale(1 1) rotate(0) translate(4 493)">
<title>morunner.communication.Publisher</title>
<!-- Node1 -->
<g id="node1" class="node"><title>Node1</title>
<polygon fill="#bfbfbf" stroke="black" points="0,-0.5 0,-57.5 170,-57.5 170,-0.5 0,-0.5"/>
<text text-anchor="middle" x="85" y="-45.5" font-family="Helvetica,sans-Serif" font-size="10.00">morunner.communication.Publisher</text>
<polyline fill="none" stroke="black" points="0,-38.5 170,-38.5 "/>
<text text-anchor="middle" x="85" y="-26.5" font-family="Helvetica,sans-Serif" font-size="10.00"> </text>
<polyline fill="none" stroke="black" points="0,-19.5 170,-19.5 "/>
<text text-anchor="start" x="8" y="-7.5" font-family="Helvetica,sans-Serif" font-size="10.00">+ produce()</text>
</g>
<!-- Node2 -->
<g id="node2" class="node"><title>Node2</title>
<g id="a_node2"><a xlink:href="classmorunner_1_1communication_1_1__Transmitter.html" target="_top" xlink:title="{morunner.communication.\l_Transmitter\n|&#45; _connection\l|+ __init__()\l+ connect()\l+ connection()\l}">
<polygon fill="none" stroke="black" points="20.5,-94.5 20.5,-184.5 149.5,-184.5 149.5,-94.5 20.5,-94.5"/>
<text text-anchor="start" x="28.5" y="-172.5" font-family="Helvetica,sans-Serif" font-size="10.00">morunner.communication.</text>
<text text-anchor="middle" x="85" y="-161.5" font-family="Helvetica,sans-Serif" font-size="10.00">_Transmitter</text>
<polyline fill="none" stroke="black" points="20.5,-154.5 149.5,-154.5 "/>
<text text-anchor="start" x="28.5" y="-142.5" font-family="Helvetica,sans-Serif" font-size="10.00">&#45; _connection</text>
<polyline fill="none" stroke="black" points="20.5,-135.5 149.5,-135.5 "/>
<text text-anchor="start" x="28.5" y="-123.5" font-family="Helvetica,sans-Serif" font-size="10.00">+ __init__()</text>
<text text-anchor="start" x="28.5" y="-112.5" font-family="Helvetica,sans-Serif" font-size="10.00">+ connect()</text>
<text text-anchor="start" x="28.5" y="-101.5" font-family="Helvetica,sans-Serif" font-size="10.00">+ connection()</text>
</a>
</g>
</g>
<!-- Node2&#45;&gt;Node1 -->
<g id="edge1" class="edge"><title>Node2&#45;&gt;Node1</title>
<path fill="none" stroke="midnightblue" d="M85,-84.3531C85,-75.074 85,-65.7909 85,-57.5896"/>
<polygon fill="none" stroke="midnightblue" points="81.5001,-84.3689 85,-94.3689 88.5001,-84.3689 81.5001,-84.3689"/>
</g>
<!-- Node3 -->
<g id="node3" class="node"><title>Node3</title>
<g id="a_node3"><a xlink:href="classmorunner_1_1identity_1_1Unique.html" target="_top" xlink:title="{morunner.identity.Unique\n||+ __init__()\l}">
<polygon fill="none" stroke="black" points="22.5,-221.5 22.5,-278.5 147.5,-278.5 147.5,-221.5 22.5,-221.5"/>
<text text-anchor="middle" x="85" y="-266.5" font-family="Helvetica,sans-Serif" font-size="10.00">morunner.identity.Unique</text>
<polyline fill="none" stroke="black" points="22.5,-259.5 147.5,-259.5 "/>
<text text-anchor="middle" x="85" y="-247.5" font-family="Helvetica,sans-Serif" font-size="10.00"> </text>
<polyline fill="none" stroke="black" points="22.5,-240.5 147.5,-240.5 "/>
<text text-anchor="start" x="30.5" y="-228.5" font-family="Helvetica,sans-Serif" font-size="10.00">+ __init__()</text>
</a>
</g>
</g>
<!-- Node3&#45;&gt;Node2 -->
<g id="edge2" class="edge"><title>Node3&#45;&gt;Node2</title>
<path fill="none" stroke="midnightblue" d="M85,-211.214C85,-202.609 85,-193.394 85,-184.554"/>
<polygon fill="none" stroke="midnightblue" points="81.5001,-211.34 85,-221.34 88.5001,-211.34 81.5001,-211.34"/>
</g>
<!-- Node4 -->
<g id="node4" class="node"><title>Node4</title>
<g id="a_node4"><a xlink:href="classmorunner_1_1identity_1_1Identified.html" target="_top" xlink:title="{morunner.identity.Identified\n|&#45; __identity\l|+ __init__()\l+ __hash__()\l+ __eq__()\l}">
<polygon fill="none" stroke="black" points="18,-315.5 18,-394.5 152,-394.5 152,-315.5 18,-315.5"/>
<text text-anchor="middle" x="85" y="-382.5" font-family="Helvetica,sans-Serif" font-size="10.00">morunner.identity.Identified</text>
<polyline fill="none" stroke="black" points="18,-375.5 152,-375.5 "/>
<text text-anchor="start" x="26" y="-363.5" font-family="Helvetica,sans-Serif" font-size="10.00">&#45; __identity</text>
<polyline fill="none" stroke="black" points="18,-356.5 152,-356.5 "/>
<text text-anchor="start" x="26" y="-344.5" font-family="Helvetica,sans-Serif" font-size="10.00">+ __init__()</text>
<text text-anchor="start" x="26" y="-333.5" font-family="Helvetica,sans-Serif" font-size="10.00">+ __hash__()</text>
<text text-anchor="start" x="26" y="-322.5" font-family="Helvetica,sans-Serif" font-size="10.00">+ __eq__()</text>
</a>
</g>
</g>
<!-- Node4&#45;&gt;Node3 -->
<g id="edge3" class="edge"><title>Node4&#45;&gt;Node3</title>
<path fill="none" stroke="midnightblue" d="M85,-305.163C85,-296.04 85,-286.806 85,-278.61"/>
<polygon fill="none" stroke="midnightblue" points="81.5001,-305.354 85,-315.354 88.5001,-305.354 81.5001,-305.354"/>
</g>
<!-- Node5 -->
<g id="node5" class="node"><title>Node5</title>
<polygon fill="none" stroke="#bfbfbf" points="63.5,-431.5 63.5,-488.5 106.5,-488.5 106.5,-431.5 63.5,-431.5"/>
<text text-anchor="middle" x="85" y="-476.5" font-family="Helvetica,sans-Serif" font-size="10.00">object</text>
<polyline fill="none" stroke="#bfbfbf" points="63.5,-469.5 106.5,-469.5 "/>
<text text-anchor="middle" x="85" y="-457.5" font-family="Helvetica,sans-Serif" font-size="10.00"> </text>
<polyline fill="none" stroke="#bfbfbf" points="63.5,-450.5 106.5,-450.5 "/>
<text text-anchor="middle" x="85" y="-438.5" font-family="Helvetica,sans-Serif" font-size="10.00"> </text>
</g>
<!-- Node5&#45;&gt;Node4 -->
<g id="edge4" class="edge"><title>Node5&#45;&gt;Node4</title>
<path fill="none" stroke="midnightblue" d="M85,-421.156C85,-412.473 85,-403.232 85,-394.52"/>
<polygon fill="none" stroke="midnightblue" points="81.5001,-421.398 85,-431.398 88.5001,-421.398 81.5001,-421.398"/>
</g>
</g>
</svg>
