<?xml version="1.0" encoding="UTF-8" standalone="no"?>
<!DOCTYPE svg PUBLIC "-//W3C//DTD SVG 1.1//EN"
 "http://www.w3.org/Graphics/SVG/1.1/DTD/svg11.dtd">
<!-- Generated by graphviz version 2.38.0 (20140413.2041)
 -->
<!-- Title: runner.communication.Message Pages: 1 -->
<svg width="163pt" height="381pt"
 viewBox="0.00 0.00 163.00 381.00" xmlns="http://www.w3.org/2000/svg" xmlns:xlink="http://www.w3.org/1999/xlink">
<g id="graph0" class="graph" transform="scale(1 1) rotate(0) translate(4 377)">
<title>runner.communication.Message</title>
<!-- Node1 -->
<g id="node1" class="node"><title>Node1</title>
<polygon fill="#bfbfbf" stroke="black" points="0,-0.5 0,-68.5 155,-68.5 155,-0.5 0,-0.5"/>
<text text-anchor="middle" x="77.5" y="-56.5" font-family="Helvetica,sans-Serif" font-size="10.00">runner.communication.Message</text>
<polyline fill="none" stroke="black" points="0,-49.5 155,-49.5 "/>
<text text-anchor="start" x="8" y="-37.5" font-family="Helvetica,sans-Serif" font-size="10.00">&#45; _description</text>
<text text-anchor="start" x="8" y="-26.5" font-family="Helvetica,sans-Serif" font-size="10.00">&#45; _data</text>
<polyline fill="none" stroke="black" points="0,-19.5 155,-19.5 "/>
<text text-anchor="start" x="8" y="-7.5" font-family="Helvetica,sans-Serif" font-size="10.00">+ __init__()</text>
</g>
<!-- Node2 -->
<g id="node2" class="node"><title>Node2</title>
<g id="a_node2"><a xlink:href="classrunner_1_1identity_1_1Unique.html" target="_top" xlink:title="{runner.identity.Unique\n||+ __init__()\l}">
<polygon fill="none" stroke="black" points="21.5,-105.5 21.5,-162.5 133.5,-162.5 133.5,-105.5 21.5,-105.5"/>
<text text-anchor="middle" x="77.5" y="-150.5" font-family="Helvetica,sans-Serif" font-size="10.00">runner.identity.Unique</text>
<polyline fill="none" stroke="black" points="21.5,-143.5 133.5,-143.5 "/>
<text text-anchor="middle" x="77.5" y="-131.5" font-family="Helvetica,sans-Serif" font-size="10.00"> </text>
<polyline fill="none" stroke="black" points="21.5,-124.5 133.5,-124.5 "/>
<text text-anchor="start" x="29.5" y="-112.5" font-family="Helvetica,sans-Serif" font-size="10.00">+ __init__()</text>
</a>
</g>
</g>
<!-- Node2&#45;&gt;Node1 -->
<g id="edge1" class="edge"><title>Node2&#45;&gt;Node1</title>
<path fill="none" stroke="midnightblue" d="M77.5,-95.0631C77.5,-86.3933 77.5,-77.2431 77.5,-68.7855"/>
<polygon fill="none" stroke="midnightblue" points="74.0001,-95.3212 77.5,-105.321 81.0001,-95.3212 74.0001,-95.3212"/>
</g>
<!-- Node3 -->
<g id="node3" class="node"><title>Node3</title>
<g id="a_node3"><a xlink:href="classrunner_1_1identity_1_1Identified.html" target="_top" xlink:title="{runner.identity.Identified\n|&#45; __identity\l|+ __init__()\l+ __hash__()\l+ __eq__()\l}">
<polygon fill="none" stroke="black" points="17,-199.5 17,-278.5 138,-278.5 138,-199.5 17,-199.5"/>
<text text-anchor="middle" x="77.5" y="-266.5" font-family="Helvetica,sans-Serif" font-size="10.00">runner.identity.Identified</text>
<polyline fill="none" stroke="black" points="17,-259.5 138,-259.5 "/>
<text text-anchor="start" x="25" y="-247.5" font-family="Helvetica,sans-Serif" font-size="10.00">&#45; __identity</text>
<polyline fill="none" stroke="black" points="17,-240.5 138,-240.5 "/>
<text text-anchor="start" x="25" y="-228.5" font-family="Helvetica,sans-Serif" font-size="10.00">+ __init__()</text>
<text text-anchor="start" x="25" y="-217.5" font-family="Helvetica,sans-Serif" font-size="10.00">+ __hash__()</text>
<text text-anchor="start" x="25" y="-206.5" font-family="Helvetica,sans-Serif" font-size="10.00">+ __eq__()</text>
</a>
</g>
</g>
<!-- Node3&#45;&gt;Node2 -->
<g id="edge2" class="edge"><title>Node3&#45;&gt;Node2</title>
<path fill="none" stroke="midnightblue" d="M77.5,-189.163C77.5,-180.04 77.5,-170.806 77.5,-162.61"/>
<polygon fill="none" stroke="midnightblue" points="74.0001,-189.354 77.5,-199.354 81.0001,-189.354 74.0001,-189.354"/>
</g>
<!-- Node4 -->
<g id="node4" class="node"><title>Node4</title>
<polygon fill="none" stroke="#bfbfbf" points="56,-315.5 56,-372.5 99,-372.5 99,-315.5 56,-315.5"/>
<text text-anchor="middle" x="77.5" y="-360.5" font-family="Helvetica,sans-Serif" font-size="10.00">object</text>
<polyline fill="none" stroke="#bfbfbf" points="56,-353.5 99,-353.5 "/>
<text text-anchor="middle" x="77.5" y="-341.5" font-family="Helvetica,sans-Serif" font-size="10.00"> </text>
<polyline fill="none" stroke="#bfbfbf" points="56,-334.5 99,-334.5 "/>
<text text-anchor="middle" x="77.5" y="-322.5" font-family="Helvetica,sans-Serif" font-size="10.00"> </text>
</g>
<!-- Node4&#45;&gt;Node3 -->
<g id="edge3" class="edge"><title>Node4&#45;&gt;Node3</title>
<path fill="none" stroke="midnightblue" d="M77.5,-305.156C77.5,-296.473 77.5,-287.232 77.5,-278.52"/>
<polygon fill="none" stroke="midnightblue" points="74.0001,-305.398 77.5,-315.398 81.0001,-305.398 74.0001,-305.398"/>
</g>
</g>
</svg>
