<?xml version="1.0" encoding="UTF-8" standalone="no"?>
<!DOCTYPE svg PUBLIC "-//W3C//DTD SVG 1.1//EN"
 "http://www.w3.org/Graphics/SVG/1.1/DTD/svg11.dtd">
<!-- Generated by graphviz version 2.38.0 (20140413.2041)
 -->
<!-- Title: break.Break Pages: 1 -->
<svg width="93pt" height="215pt"
 viewBox="0.00 0.00 93.00 215.00" xmlns="http://www.w3.org/2000/svg" xmlns:xlink="http://www.w3.org/1999/xlink">
<g id="graph0" class="graph" transform="scale(1 1) rotate(0) translate(4 211)">
<title>break.Break</title>
<!-- Node1 -->
<g id="node1" class="node"><title>Node1</title>
<polygon fill="#bfbfbf" stroke="black" points="4,-0.5 4,-112.5 81,-112.5 81,-0.5 4,-0.5"/>
<text text-anchor="middle" x="42.5" y="-100.5" font-family="Helvetica,sans-Serif" font-size="10.00">break.Break</text>
<polyline fill="none" stroke="black" points="4,-93.5 81,-93.5 "/>
<text text-anchor="start" x="12" y="-81.5" font-family="Helvetica,sans-Serif" font-size="10.00">+ silent</text>
<text text-anchor="start" x="12" y="-70.5" font-family="Helvetica,sans-Serif" font-size="10.00">+ enabled</text>
<text text-anchor="start" x="12" y="-59.5" font-family="Helvetica,sans-Serif" font-size="10.00">+ tasks</text>
<polyline fill="none" stroke="black" points="4,-52.5 81,-52.5 "/>
<text text-anchor="start" x="12" y="-40.5" font-family="Helvetica,sans-Serif" font-size="10.00">+ __init__()</text>
<text text-anchor="start" x="12" y="-29.5" font-family="Helvetica,sans-Serif" font-size="10.00">+ add_task()</text>
<text text-anchor="start" x="12" y="-18.5" font-family="Helvetica,sans-Serif" font-size="10.00">+ add_tasks()</text>
<text text-anchor="start" x="12" y="-7.5" font-family="Helvetica,sans-Serif" font-size="10.00">+ stop()</text>
</g>
<!-- Node2 -->
<g id="node2" class="node"><title>Node2</title>
<polygon fill="none" stroke="#bfbfbf" points="0,-149.5 0,-206.5 85,-206.5 85,-149.5 0,-149.5"/>
<text text-anchor="middle" x="42.5" y="-194.5" font-family="Helvetica,sans-Serif" font-size="10.00">gdb::Breakpoint</text>
<polyline fill="none" stroke="#bfbfbf" points="0,-187.5 85,-187.5 "/>
<text text-anchor="middle" x="42.5" y="-175.5" font-family="Helvetica,sans-Serif" font-size="10.00"> </text>
<polyline fill="none" stroke="#bfbfbf" points="0,-168.5 85,-168.5 "/>
<text text-anchor="middle" x="42.5" y="-156.5" font-family="Helvetica,sans-Serif" font-size="10.00"> </text>
</g>
<!-- Node2&#45;&gt;Node1 -->
<g id="edge1" class="edge"><title>Node2&#45;&gt;Node1</title>
<path fill="none" stroke="midnightblue" d="M42.5,-139.108C42.5,-130.748 42.5,-121.725 42.5,-112.834"/>
<polygon fill="none" stroke="midnightblue" points="39.0001,-139.284 42.5,-149.284 46.0001,-139.284 39.0001,-139.284"/>
</g>
</g>
</svg>
