<?xml version="1.0" encoding="UTF-8" standalone="no"?>
<!DOCTYPE svg PUBLIC "-//W3C//DTD SVG 1.1//EN"
 "http://www.w3.org/Graphics/SVG/1.1/DTD/svg11.dtd">
<!-- Generated by graphviz version 2.38.0 (20140413.2041)
 -->
<!-- Title: registry.Registry Pages: 1 -->
<svg width="97pt" height="171pt"
 viewBox="0.00 0.00 97.00 171.00" xmlns="http://www.w3.org/2000/svg" xmlns:xlink="http://www.w3.org/1999/xlink">
<g id="graph0" class="graph" transform="scale(1 1) rotate(0) translate(4 167)">
<title>registry.Registry</title>
<!-- Node1 -->
<g id="node1" class="node"><title>Node1</title>
<polygon fill="#bfbfbf" stroke="black" points="-7.10543e-15,-0.5 -7.10543e-15,-68.5 89,-68.5 89,-0.5 -7.10543e-15,-0.5"/>
<text text-anchor="middle" x="44.5" y="-56.5" font-family="Helvetica,sans-Serif" font-size="10.00">registry.Registry</text>
<polyline fill="none" stroke="black" points="-7.10543e-15,-49.5 89,-49.5 "/>
<text text-anchor="start" x="8" y="-37.5" font-family="Helvetica,sans-Serif" font-size="10.00">+ breaks</text>
<text text-anchor="start" x="8" y="-26.5" font-family="Helvetica,sans-Serif" font-size="10.00">+ broadcaster</text>
<polyline fill="none" stroke="black" points="-7.10543e-15,-19.5 89,-19.5 "/>
<text text-anchor="start" x="8" y="-7.5" font-family="Helvetica,sans-Serif" font-size="10.00">+ __init__()</text>
</g>
<!-- Node2 -->
<g id="node2" class="node"><title>Node2</title>
<polygon fill="none" stroke="#bfbfbf" points="23,-105.5 23,-162.5 66,-162.5 66,-105.5 23,-105.5"/>
<text text-anchor="middle" x="44.5" y="-150.5" font-family="Helvetica,sans-Serif" font-size="10.00">object</text>
<polyline fill="none" stroke="#bfbfbf" points="23,-143.5 66,-143.5 "/>
<text text-anchor="middle" x="44.5" y="-131.5" font-family="Helvetica,sans-Serif" font-size="10.00"> </text>
<polyline fill="none" stroke="#bfbfbf" points="23,-124.5 66,-124.5 "/>
<text text-anchor="middle" x="44.5" y="-112.5" font-family="Helvetica,sans-Serif" font-size="10.00"> </text>
</g>
<!-- Node2&#45;&gt;Node1 -->
<g id="edge1" class="edge"><title>Node2&#45;&gt;Node1</title>
<path fill="none" stroke="midnightblue" d="M44.5,-95.0631C44.5,-86.3933 44.5,-77.2431 44.5,-68.7855"/>
<polygon fill="none" stroke="midnightblue" points="41.0001,-95.3212 44.5,-105.321 48.0001,-95.3212 41.0001,-95.3212"/>
</g>
</g>
</svg>
