<?xml version="1.0" encoding="UTF-8" standalone="no"?>
<!DOCTYPE svg PUBLIC "-//W3C//DTD SVG 1.1//EN"
 "http://www.w3.org/Graphics/SVG/1.1/DTD/svg11.dtd">
<!-- Generated by graphviz version 2.38.0 (20140413.2041)
 -->
<!-- Title: runner.identity.Identified Pages: 1 -->
<svg width="592pt" height="574pt"
 viewBox="0.00 0.00 591.50 574.00" xmlns="http://www.w3.org/2000/svg" xmlns:xlink="http://www.w3.org/1999/xlink">
<g id="graph0" class="graph" transform="scale(1 1) rotate(0) translate(4 570)">
<title>runner.identity.Identified</title>
<!-- Node1 -->
<g id="node1" class="node"><title>Node1</title>
<polygon fill="#bfbfbf" stroke="black" points="265.5,-392.5 265.5,-471.5 386.5,-471.5 386.5,-392.5 265.5,-392.5"/>
<text text-anchor="middle" x="326" y="-459.5" font-family="Helvetica,sans-Serif" font-size="10.00">runner.identity.Identified</text>
<polyline fill="none" stroke="black" points="265.5,-452.5 386.5,-452.5 "/>
<text text-anchor="start" x="273.5" y="-440.5" font-family="Helvetica,sans-Serif" font-size="10.00">&#45; __identity</text>
<polyline fill="none" stroke="black" points="265.5,-433.5 386.5,-433.5 "/>
<text text-anchor="start" x="273.5" y="-421.5" font-family="Helvetica,sans-Serif" font-size="10.00">+ __init__()</text>
<text text-anchor="start" x="273.5" y="-410.5" font-family="Helvetica,sans-Serif" font-size="10.00">+ __hash__()</text>
<text text-anchor="start" x="273.5" y="-399.5" font-family="Helvetica,sans-Serif" font-size="10.00">+ __eq__()</text>
</g>
<!-- Node3 -->
<g id="node3" class="node"><title>Node3</title>
<g id="a_node3"><a xlink:href="classrunner_1_1identity_1_1Unique.html" target="_top" xlink:title="{runner.identity.Unique\n||+ __init__()\l}">
<polygon fill="none" stroke="black" points="270,-298.5 270,-355.5 382,-355.5 382,-298.5 270,-298.5"/>
<text text-anchor="middle" x="326" y="-343.5" font-family="Helvetica,sans-Serif" font-size="10.00">runner.identity.Unique</text>
<polyline fill="none" stroke="black" points="270,-336.5 382,-336.5 "/>
<text text-anchor="middle" x="326" y="-324.5" font-family="Helvetica,sans-Serif" font-size="10.00"> </text>
<polyline fill="none" stroke="black" points="270,-317.5 382,-317.5 "/>
<text text-anchor="start" x="278" y="-305.5" font-family="Helvetica,sans-Serif" font-size="10.00">+ __init__()</text>
</a>
</g>
</g>
<!-- Node1&#45;&gt;Node3 -->
<g id="edge2" class="edge"><title>Node1&#45;&gt;Node3</title>
<path fill="none" stroke="midnightblue" d="M326,-382.163C326,-373.04 326,-363.806 326,-355.61"/>
<polygon fill="none" stroke="midnightblue" points="322.5,-382.354 326,-392.354 329.5,-382.354 322.5,-382.354"/>
</g>
<!-- Node2 -->
<g id="node2" class="node"><title>Node2</title>
<polygon fill="none" stroke="#bfbfbf" points="304.5,-508.5 304.5,-565.5 347.5,-565.5 347.5,-508.5 304.5,-508.5"/>
<text text-anchor="middle" x="326" y="-553.5" font-family="Helvetica,sans-Serif" font-size="10.00">object</text>
<polyline fill="none" stroke="#bfbfbf" points="304.5,-546.5 347.5,-546.5 "/>
<text text-anchor="middle" x="326" y="-534.5" font-family="Helvetica,sans-Serif" font-size="10.00"> </text>
<polyline fill="none" stroke="#bfbfbf" points="304.5,-527.5 347.5,-527.5 "/>
<text text-anchor="middle" x="326" y="-515.5" font-family="Helvetica,sans-Serif" font-size="10.00"> </text>
</g>
<!-- Node2&#45;&gt;Node1 -->
<g id="edge1" class="edge"><title>Node2&#45;&gt;Node1</title>
<path fill="none" stroke="midnightblue" d="M326,-498.156C326,-489.473 326,-480.232 326,-471.52"/>
<polygon fill="none" stroke="midnightblue" points="322.5,-498.398 326,-508.398 329.5,-498.398 322.5,-498.398"/>
</g>
<!-- Node4 -->
<g id="node4" class="node"><title>Node4</title>
<g id="a_node4"><a xlink:href="classrunner_1_1communication_1_1__Transmitter.html" target="_top" xlink:title="{runner.communication.\l_Transmitter\n|&#45; _connection\l|+ __init__()\l+ connect()\l+ connection()\l}">
<polygon fill="none" stroke="black" points="108,-138.5 108,-228.5 224,-228.5 224,-138.5 108,-138.5"/>
<text text-anchor="start" x="116" y="-216.5" font-family="Helvetica,sans-Serif" font-size="10.00">runner.communication.</text>
<text text-anchor="middle" x="166" y="-205.5" font-family="Helvetica,sans-Serif" font-size="10.00">_Transmitter</text>
<polyline fill="none" stroke="black" points="108,-198.5 224,-198.5 "/>
<text text-anchor="start" x="116" y="-186.5" font-family="Helvetica,sans-Serif" font-size="10.00">&#45; _connection</text>
<polyline fill="none" stroke="black" points="108,-179.5 224,-179.5 "/>
<text text-anchor="start" x="116" y="-167.5" font-family="Helvetica,sans-Serif" font-size="10.00">+ __init__()</text>
<text text-anchor="start" x="116" y="-156.5" font-family="Helvetica,sans-Serif" font-size="10.00">+ connect()</text>
<text text-anchor="start" x="116" y="-145.5" font-family="Helvetica,sans-Serif" font-size="10.00">+ connection()</text>
</a>
</g>
</g>
<!-- Node3&#45;&gt;Node4 -->
<g id="edge3" class="edge"><title>Node3&#45;&gt;Node4</title>
<path fill="none" stroke="midnightblue" d="M272.121,-292.363C258.828,-283.149 244.977,-272.726 233,-262 221.738,-251.914 210.568,-239.982 200.671,-228.542"/>
<polygon fill="none" stroke="midnightblue" points="270.514,-295.503 280.751,-298.234 274.451,-289.715 270.514,-295.503"/>
</g>
<!-- Node7 -->
<g id="node7" class="node"><title>Node7</title>
<g id="a_node7"><a xlink:href="classrunner_1_1communication_1_1Broadcaster.html" target="_top" xlink:title="{runner.communication.Broadcaster\n|&#45; _publishers\l&#45; _subscribers\l&#45; _holding\l&#45; _listener\l&#45; _announcer\l|+ __init__()\l+ add_publisher()\l+ add_subscriber()\l+ collect()\l+ broadcast()\l+ run()\l}">
<polygon fill="none" stroke="black" points="242,-105.5 242,-261.5 410,-261.5 410,-105.5 242,-105.5"/>
<text text-anchor="middle" x="326" y="-249.5" font-family="Helvetica,sans-Serif" font-size="10.00">runner.communication.Broadcaster</text>
<polyline fill="none" stroke="black" points="242,-242.5 410,-242.5 "/>
<text text-anchor="start" x="250" y="-230.5" font-family="Helvetica,sans-Serif" font-size="10.00">&#45; _publishers</text>
<text text-anchor="start" x="250" y="-219.5" font-family="Helvetica,sans-Serif" font-size="10.00">&#45; _subscribers</text>
<text text-anchor="start" x="250" y="-208.5" font-family="Helvetica,sans-Serif" font-size="10.00">&#45; _holding</text>
<text text-anchor="start" x="250" y="-197.5" font-family="Helvetica,sans-Serif" font-size="10.00">&#45; _listener</text>
<text text-anchor="start" x="250" y="-186.5" font-family="Helvetica,sans-Serif" font-size="10.00">&#45; _announcer</text>
<polyline fill="none" stroke="black" points="242,-179.5 410,-179.5 "/>
<text text-anchor="start" x="250" y="-167.5" font-family="Helvetica,sans-Serif" font-size="10.00">+ __init__()</text>
<text text-anchor="start" x="250" y="-156.5" font-family="Helvetica,sans-Serif" font-size="10.00">+ add_publisher()</text>
<text text-anchor="start" x="250" y="-145.5" font-family="Helvetica,sans-Serif" font-size="10.00">+ add_subscriber()</text>
<text text-anchor="start" x="250" y="-134.5" font-family="Helvetica,sans-Serif" font-size="10.00">+ collect()</text>
<text text-anchor="start" x="250" y="-123.5" font-family="Helvetica,sans-Serif" font-size="10.00">+ broadcast()</text>
<text text-anchor="start" x="250" y="-112.5" font-family="Helvetica,sans-Serif" font-size="10.00">+ run()</text>
</a>
</g>
</g>
<!-- Node3&#45;&gt;Node7 -->
<g id="edge6" class="edge"><title>Node3&#45;&gt;Node7</title>
<path fill="none" stroke="midnightblue" d="M326,-288.34C326,-280.044 326,-270.964 326,-261.736"/>
<polygon fill="none" stroke="midnightblue" points="322.5,-288.381 326,-298.381 329.5,-288.382 322.5,-288.381"/>
</g>
<!-- Node8 -->
<g id="node8" class="node"><title>Node8</title>
<g id="a_node8"><a xlink:href="classrunner_1_1communication_1_1Message.html" target="_top" xlink:title="{runner.communication.Message\n|&#45; _description\l&#45; _data\l|+ __init__()\l}">
<polygon fill="none" stroke="black" points="428.5,-149.5 428.5,-217.5 583.5,-217.5 583.5,-149.5 428.5,-149.5"/>
<text text-anchor="middle" x="506" y="-205.5" font-family="Helvetica,sans-Serif" font-size="10.00">runner.communication.Message</text>
<polyline fill="none" stroke="black" points="428.5,-198.5 583.5,-198.5 "/>
<text text-anchor="start" x="436.5" y="-186.5" font-family="Helvetica,sans-Serif" font-size="10.00">&#45; _description</text>
<text text-anchor="start" x="436.5" y="-175.5" font-family="Helvetica,sans-Serif" font-size="10.00">&#45; _data</text>
<polyline fill="none" stroke="black" points="428.5,-168.5 583.5,-168.5 "/>
<text text-anchor="start" x="436.5" y="-156.5" font-family="Helvetica,sans-Serif" font-size="10.00">+ __init__()</text>
</a>
</g>
</g>
<!-- Node3&#45;&gt;Node8 -->
<g id="edge7" class="edge"><title>Node3&#45;&gt;Node8</title>
<path fill="none" stroke="midnightblue" d="M376.961,-292.621C390.848,-283.071 405.719,-272.419 419,-262 436.665,-248.141 455.368,-231.73 470.887,-217.586"/>
<polygon fill="none" stroke="midnightblue" points="374.756,-289.888 368.464,-298.412 378.698,-295.672 374.756,-289.888"/>
</g>
<!-- Node5 -->
<g id="node5" class="node"><title>Node5</title>
<g id="a_node5"><a xlink:href="classrunner_1_1communication_1_1Publisher.html" target="_top" xlink:title="{runner.communication.Publisher\n||+ produce()\l}">
<polygon fill="none" stroke="black" points="0,-6 0,-63 156,-63 156,-6 0,-6"/>
<text text-anchor="middle" x="78" y="-51" font-family="Helvetica,sans-Serif" font-size="10.00">runner.communication.Publisher</text>
<polyline fill="none" stroke="black" points="0,-44 156,-44 "/>
<text text-anchor="middle" x="78" y="-32" font-family="Helvetica,sans-Serif" font-size="10.00"> </text>
<polyline fill="none" stroke="black" points="0,-25 156,-25 "/>
<text text-anchor="start" x="8" y="-13" font-family="Helvetica,sans-Serif" font-size="10.00">+ produce()</text>
</a>
</g>
</g>
<!-- Node4&#45;&gt;Node5 -->
<g id="edge4" class="edge"><title>Node4&#45;&gt;Node5</title>
<path fill="none" stroke="midnightblue" d="M134.357,-129.642C120.944,-107.237 105.865,-82.047 94.6815,-63.3657"/>
<polygon fill="none" stroke="midnightblue" points="131.458,-131.613 139.597,-138.395 137.464,-128.017 131.458,-131.613"/>
</g>
<!-- Node6 -->
<g id="node6" class="node"><title>Node6</title>
<g id="a_node6"><a xlink:href="classrunner_1_1communication_1_1Subscriber.html" target="_top" xlink:title="{runner.communication.Subscriber\n||+ listen()\l+ is_interested()\l}">
<polygon fill="none" stroke="black" points="174,-0.5 174,-68.5 336,-68.5 336,-0.5 174,-0.5"/>
<text text-anchor="middle" x="255" y="-56.5" font-family="Helvetica,sans-Serif" font-size="10.00">runner.communication.Subscriber</text>
<polyline fill="none" stroke="black" points="174,-49.5 336,-49.5 "/>
<text text-anchor="middle" x="255" y="-37.5" font-family="Helvetica,sans-Serif" font-size="10.00"> </text>
<polyline fill="none" stroke="black" points="174,-30.5 336,-30.5 "/>
<text text-anchor="start" x="182" y="-18.5" font-family="Helvetica,sans-Serif" font-size="10.00">+ listen()</text>
<text text-anchor="start" x="182" y="-7.5" font-family="Helvetica,sans-Serif" font-size="10.00">+ is_interested()</text>
</a>
</g>
</g>
<!-- Node4&#45;&gt;Node6 -->
<g id="edge5" class="edge"><title>Node4&#45;&gt;Node6</title>
<path fill="none" stroke="midnightblue" d="M197.883,-129.84C210.198,-109.499 223.919,-86.8363 234.825,-68.8221"/>
<polygon fill="none" stroke="midnightblue" points="194.888,-128.028 192.703,-138.395 200.876,-131.654 194.888,-128.028"/>
</g>
</g>
</svg>
