<?xml version="1.0" encoding="UTF-8" standalone="no"?>
<!DOCTYPE svg PUBLIC "-//W3C//DTD SVG 1.1//EN"
 "http://www.w3.org/Graphics/SVG/1.1/DTD/svg11.dtd">
<!-- Generated by graphviz version 2.38.0 (20140413.2041)
 -->
<!-- Title: morunner.communication.Message Pages: 1 -->
<svg width="177pt" height="381pt"
 viewBox="0.00 0.00 177.00 381.00" xmlns="http://www.w3.org/2000/svg" xmlns:xlink="http://www.w3.org/1999/xlink">
<g id="graph0" class="graph" transform="scale(1 1) rotate(0) translate(4 377)">
<title>morunner.communication.Message</title>
<!-- Node1 -->
<g id="node1" class="node"><title>Node1</title>
<polygon fill="#bfbfbf" stroke="black" points="-1.42109e-14,-0.5 -1.42109e-14,-68.5 169,-68.5 169,-0.5 -1.42109e-14,-0.5"/>
<text text-anchor="middle" x="84.5" y="-56.5" font-family="Helvetica,sans-Serif" font-size="10.00">morunner.communication.Message</text>
<polyline fill="none" stroke="black" points="-1.42109e-14,-49.5 169,-49.5 "/>
<text text-anchor="start" x="8" y="-37.5" font-family="Helvetica,sans-Serif" font-size="10.00">&#45; _description</text>
<text text-anchor="start" x="8" y="-26.5" font-family="Helvetica,sans-Serif" font-size="10.00">&#45; _data</text>
<polyline fill="none" stroke="black" points="-1.42109e-14,-19.5 169,-19.5 "/>
<text text-anchor="start" x="8" y="-7.5" font-family="Helvetica,sans-Serif" font-size="10.00">+ __init__()</text>
</g>
<!-- Node2 -->
<g id="node2" class="node"><title>Node2</title>
<g id="a_node2"><a xlink:href="classmorunner_1_1identity_1_1Unique.html" target="_top" xlink:title="{morunner.identity.Unique\n||+ __init__()\l}">
<polygon fill="none" stroke="black" points="22,-105.5 22,-162.5 147,-162.5 147,-105.5 22,-105.5"/>
<text text-anchor="middle" x="84.5" y="-150.5" font-family="Helvetica,sans-Serif" font-size="10.00">morunner.identity.Unique</text>
<polyline fill="none" stroke="black" points="22,-143.5 147,-143.5 "/>
<text text-anchor="middle" x="84.5" y="-131.5" font-family="Helvetica,sans-Serif" font-size="10.00"> </text>
<polyline fill="none" stroke="black" points="22,-124.5 147,-124.5 "/>
<text text-anchor="start" x="30" y="-112.5" font-family="Helvetica,sans-Serif" font-size="10.00">+ __init__()</text>
</a>
</g>
</g>
<!-- Node2&#45;&gt;Node1 -->
<g id="edge1" class="edge"><title>Node2&#45;&gt;Node1</title>
<path fill="none" stroke="midnightblue" d="M84.5,-95.0631C84.5,-86.3933 84.5,-77.2431 84.5,-68.7855"/>
<polygon fill="none" stroke="midnightblue" points="81.0001,-95.3212 84.5,-105.321 88.0001,-95.3212 81.0001,-95.3212"/>
</g>
<!-- Node3 -->
<g id="node3" class="node"><title>Node3</title>
<g id="a_node3"><a xlink:href="classmorunner_1_1identity_1_1Identified.html" target="_top" xlink:title="{morunner.identity.Identified\n|&#45; __identity\l|+ __init__()\l+ __hash__()\l+ __eq__()\l}">
<polygon fill="none" stroke="black" points="17.5,-199.5 17.5,-278.5 151.5,-278.5 151.5,-199.5 17.5,-199.5"/>
<text text-anchor="middle" x="84.5" y="-266.5" font-family="Helvetica,sans-Serif" font-size="10.00">morunner.identity.Identified</text>
<polyline fill="none" stroke="black" points="17.5,-259.5 151.5,-259.5 "/>
<text text-anchor="start" x="25.5" y="-247.5" font-family="Helvetica,sans-Serif" font-size="10.00">&#45; __identity</text>
<polyline fill="none" stroke="black" points="17.5,-240.5 151.5,-240.5 "/>
<text text-anchor="start" x="25.5" y="-228.5" font-family="Helvetica,sans-Serif" font-size="10.00">+ __init__()</text>
<text text-anchor="start" x="25.5" y="-217.5" font-family="Helvetica,sans-Serif" font-size="10.00">+ __hash__()</text>
<text text-anchor="start" x="25.5" y="-206.5" font-family="Helvetica,sans-Serif" font-size="10.00">+ __eq__()</text>
</a>
</g>
</g>
<!-- Node3&#45;&gt;Node2 -->
<g id="edge2" class="edge"><title>Node3&#45;&gt;Node2</title>
<path fill="none" stroke="midnightblue" d="M84.5,-189.163C84.5,-180.04 84.5,-170.806 84.5,-162.61"/>
<polygon fill="none" stroke="midnightblue" points="81.0001,-189.354 84.5,-199.354 88.0001,-189.354 81.0001,-189.354"/>
</g>
<!-- Node4 -->
<g id="node4" class="node"><title>Node4</title>
<polygon fill="none" stroke="#bfbfbf" points="63,-315.5 63,-372.5 106,-372.5 106,-315.5 63,-315.5"/>
<text text-anchor="middle" x="84.5" y="-360.5" font-family="Helvetica,sans-Serif" font-size="10.00">object</text>
<polyline fill="none" stroke="#bfbfbf" points="63,-353.5 106,-353.5 "/>
<text text-anchor="middle" x="84.5" y="-341.5" font-family="Helvetica,sans-Serif" font-size="10.00"> </text>
<polyline fill="none" stroke="#bfbfbf" points="63,-334.5 106,-334.5 "/>
<text text-anchor="middle" x="84.5" y="-322.5" font-family="Helvetica,sans-Serif" font-size="10.00"> </text>
</g>
<!-- Node4&#45;&gt;Node3 -->
<g id="edge3" class="edge"><title>Node4&#45;&gt;Node3</title>
<path fill="none" stroke="midnightblue" d="M84.5,-305.156C84.5,-296.473 84.5,-287.232 84.5,-278.52"/>
<polygon fill="none" stroke="midnightblue" points="81.0001,-305.398 84.5,-315.398 88.0001,-305.398 81.0001,-305.398"/>
</g>
</g>
</svg>
