<?xml version="1.0" encoding="UTF-8" standalone="no"?>
<!DOCTYPE svg PUBLIC "-//W3C//DTD SVG 1.1//EN"
 "http://www.w3.org/Graphics/SVG/1.1/DTD/svg11.dtd">
<!-- Generated by graphviz version 2.38.0 (20140413.2041)
 -->
<!-- Title: morunner.communication.Broadcaster Pages: 1 -->
<svg width="190pt" height="469pt"
 viewBox="0.00 0.00 190.00 469.00" xmlns="http://www.w3.org/2000/svg" xmlns:xlink="http://www.w3.org/1999/xlink">
<g id="graph0" class="graph" transform="scale(1 1) rotate(0) translate(4 465)">
<title>morunner.communication.Broadcaster</title>
<!-- Node1 -->
<g id="node1" class="node"><title>Node1</title>
<polygon fill="#bfbfbf" stroke="black" points="0,-0.5 0,-156.5 182,-156.5 182,-0.5 0,-0.5"/>
<text text-anchor="middle" x="91" y="-144.5" font-family="Helvetica,sans-Serif" font-size="10.00">morunner.communication.Broadcaster</text>
<polyline fill="none" stroke="black" points="0,-137.5 182,-137.5 "/>
<text text-anchor="start" x="8" y="-125.5" font-family="Helvetica,sans-Serif" font-size="10.00">&#45; _publishers</text>
<text text-anchor="start" x="8" y="-114.5" font-family="Helvetica,sans-Serif" font-size="10.00">&#45; _subscribers</text>
<text text-anchor="start" x="8" y="-103.5" font-family="Helvetica,sans-Serif" font-size="10.00">&#45; _holding</text>
<text text-anchor="start" x="8" y="-92.5" font-family="Helvetica,sans-Serif" font-size="10.00">&#45; _listener</text>
<text text-anchor="start" x="8" y="-81.5" font-family="Helvetica,sans-Serif" font-size="10.00">&#45; _announcer</text>
<polyline fill="none" stroke="black" points="0,-74.5 182,-74.5 "/>
<text text-anchor="start" x="8" y="-62.5" font-family="Helvetica,sans-Serif" font-size="10.00">+ __init__()</text>
<text text-anchor="start" x="8" y="-51.5" font-family="Helvetica,sans-Serif" font-size="10.00">+ add_publisher()</text>
<text text-anchor="start" x="8" y="-40.5" font-family="Helvetica,sans-Serif" font-size="10.00">+ add_subscriber()</text>
<text text-anchor="start" x="8" y="-29.5" font-family="Helvetica,sans-Serif" font-size="10.00">+ collect()</text>
<text text-anchor="start" x="8" y="-18.5" font-family="Helvetica,sans-Serif" font-size="10.00">+ broadcast()</text>
<text text-anchor="start" x="8" y="-7.5" font-family="Helvetica,sans-Serif" font-size="10.00">+ run()</text>
</g>
<!-- Node2 -->
<g id="node2" class="node"><title>Node2</title>
<g id="a_node2"><a xlink:href="classmorunner_1_1identity_1_1Unique.html" target="_top" xlink:title="{morunner.identity.Unique\n||+ __init__()\l}">
<polygon fill="none" stroke="black" points="28.5,-193.5 28.5,-250.5 153.5,-250.5 153.5,-193.5 28.5,-193.5"/>
<text text-anchor="middle" x="91" y="-238.5" font-family="Helvetica,sans-Serif" font-size="10.00">morunner.identity.Unique</text>
<polyline fill="none" stroke="black" points="28.5,-231.5 153.5,-231.5 "/>
<text text-anchor="middle" x="91" y="-219.5" font-family="Helvetica,sans-Serif" font-size="10.00"> </text>
<polyline fill="none" stroke="black" points="28.5,-212.5 153.5,-212.5 "/>
<text text-anchor="start" x="36.5" y="-200.5" font-family="Helvetica,sans-Serif" font-size="10.00">+ __init__()</text>
</a>
</g>
</g>
<!-- Node2&#45;&gt;Node1 -->
<g id="edge1" class="edge"><title>Node2&#45;&gt;Node1</title>
<path fill="none" stroke="midnightblue" d="M91,-183.34C91,-175.044 91,-165.964 91,-156.736"/>
<polygon fill="none" stroke="midnightblue" points="87.5001,-183.381 91,-193.381 94.5001,-183.382 87.5001,-183.381"/>
</g>
<!-- Node3 -->
<g id="node3" class="node"><title>Node3</title>
<g id="a_node3"><a xlink:href="classmorunner_1_1identity_1_1Identified.html" target="_top" xlink:title="{morunner.identity.Identified\n|&#45; __identity\l|+ __init__()\l+ __hash__()\l+ __eq__()\l}">
<polygon fill="none" stroke="black" points="24,-287.5 24,-366.5 158,-366.5 158,-287.5 24,-287.5"/>
<text text-anchor="middle" x="91" y="-354.5" font-family="Helvetica,sans-Serif" font-size="10.00">morunner.identity.Identified</text>
<polyline fill="none" stroke="black" points="24,-347.5 158,-347.5 "/>
<text text-anchor="start" x="32" y="-335.5" font-family="Helvetica,sans-Serif" font-size="10.00">&#45; __identity</text>
<polyline fill="none" stroke="black" points="24,-328.5 158,-328.5 "/>
<text text-anchor="start" x="32" y="-316.5" font-family="Helvetica,sans-Serif" font-size="10.00">+ __init__()</text>
<text text-anchor="start" x="32" y="-305.5" font-family="Helvetica,sans-Serif" font-size="10.00">+ __hash__()</text>
<text text-anchor="start" x="32" y="-294.5" font-family="Helvetica,sans-Serif" font-size="10.00">+ __eq__()</text>
</a>
</g>
</g>
<!-- Node3&#45;&gt;Node2 -->
<g id="edge2" class="edge"><title>Node3&#45;&gt;Node2</title>
<path fill="none" stroke="midnightblue" d="M91,-277.163C91,-268.04 91,-258.806 91,-250.61"/>
<polygon fill="none" stroke="midnightblue" points="87.5001,-277.354 91,-287.354 94.5001,-277.354 87.5001,-277.354"/>
</g>
<!-- Node4 -->
<g id="node4" class="node"><title>Node4</title>
<polygon fill="none" stroke="#bfbfbf" points="69.5,-403.5 69.5,-460.5 112.5,-460.5 112.5,-403.5 69.5,-403.5"/>
<text text-anchor="middle" x="91" y="-448.5" font-family="Helvetica,sans-Serif" font-size="10.00">object</text>
<polyline fill="none" stroke="#bfbfbf" points="69.5,-441.5 112.5,-441.5 "/>
<text text-anchor="middle" x="91" y="-429.5" font-family="Helvetica,sans-Serif" font-size="10.00"> </text>
<polyline fill="none" stroke="#bfbfbf" points="69.5,-422.5 112.5,-422.5 "/>
<text text-anchor="middle" x="91" y="-410.5" font-family="Helvetica,sans-Serif" font-size="10.00"> </text>
</g>
<!-- Node4&#45;&gt;Node3 -->
<g id="edge3" class="edge"><title>Node4&#45;&gt;Node3</title>
<path fill="none" stroke="midnightblue" d="M91,-393.156C91,-384.473 91,-375.232 91,-366.52"/>
<polygon fill="none" stroke="midnightblue" points="87.5001,-393.398 91,-403.398 94.5001,-393.398 87.5001,-393.398"/>
</g>
</g>
</svg>
