<?xml version="1.0" encoding="UTF-8" standalone="no"?>
<!DOCTYPE svg PUBLIC "-//W3C//DTD SVG 1.1//EN"
 "http://www.w3.org/Graphics/SVG/1.1/DTD/svg11.dtd">
<!-- Generated by graphviz version 2.38.0 (20140413.2041)
 -->
<!-- Title: identity.Identified Pages: 1 -->
<svg width="99pt" height="182pt"
 viewBox="0.00 0.00 99.00 182.00" xmlns="http://www.w3.org/2000/svg" xmlns:xlink="http://www.w3.org/1999/xlink">
<g id="graph0" class="graph" transform="scale(1 1) rotate(0) translate(4 178)">
<title>identity.Identified</title>
<!-- Node1 -->
<g id="node1" class="node"><title>Node1</title>
<polygon fill="#bfbfbf" stroke="black" points="0,-0.5 0,-79.5 91,-79.5 91,-0.5 0,-0.5"/>
<text text-anchor="middle" x="45.5" y="-67.5" font-family="Helvetica,sans-Serif" font-size="10.00">identity.Identified</text>
<polyline fill="none" stroke="black" points="0,-60.5 91,-60.5 "/>
<text text-anchor="start" x="8" y="-48.5" font-family="Helvetica,sans-Serif" font-size="10.00">&#45; __identity</text>
<polyline fill="none" stroke="black" points="0,-41.5 91,-41.5 "/>
<text text-anchor="start" x="8" y="-29.5" font-family="Helvetica,sans-Serif" font-size="10.00">+ __init__()</text>
<text text-anchor="start" x="8" y="-18.5" font-family="Helvetica,sans-Serif" font-size="10.00">+ __hash__()</text>
<text text-anchor="start" x="8" y="-7.5" font-family="Helvetica,sans-Serif" font-size="10.00">+ __eq__()</text>
</g>
<!-- Node2 -->
<g id="node2" class="node"><title>Node2</title>
<polygon fill="none" stroke="#bfbfbf" points="24,-116.5 24,-173.5 67,-173.5 67,-116.5 24,-116.5"/>
<text text-anchor="middle" x="45.5" y="-161.5" font-family="Helvetica,sans-Serif" font-size="10.00">object</text>
<polyline fill="none" stroke="#bfbfbf" points="24,-154.5 67,-154.5 "/>
<text text-anchor="middle" x="45.5" y="-142.5" font-family="Helvetica,sans-Serif" font-size="10.00"> </text>
<polyline fill="none" stroke="#bfbfbf" points="24,-135.5 67,-135.5 "/>
<text text-anchor="middle" x="45.5" y="-123.5" font-family="Helvetica,sans-Serif" font-size="10.00"> </text>
</g>
<!-- Node2&#45;&gt;Node1 -->
<g id="edge1" class="edge"><title>Node2&#45;&gt;Node1</title>
<path fill="none" stroke="midnightblue" d="M45.5,-106.156C45.5,-97.4733 45.5,-88.2318 45.5,-79.5205"/>
<polygon fill="none" stroke="midnightblue" points="42.0001,-106.398 45.5,-116.398 49.0001,-106.398 42.0001,-106.398"/>
</g>
</g>
</svg>
