<?xml version="1.0" encoding="UTF-8" standalone="no"?>
<!DOCTYPE svg PUBLIC "-//W3C//DTD SVG 1.1//EN"
 "http://www.w3.org/Graphics/SVG/1.1/DTD/svg11.dtd">
<!-- Generated by graphviz version 2.38.0 (20140413.2041)
 -->
<!-- Title: runner.communication._Transmitter Pages: 1 -->
<svg width="129pt" height="403pt"
 viewBox="0.00 0.00 129.00 403.00" xmlns="http://www.w3.org/2000/svg" xmlns:xlink="http://www.w3.org/1999/xlink">
<g id="graph0" class="graph" transform="scale(1 1) rotate(0) translate(4 399)">
<title>runner.communication._Transmitter</title>
<!-- Node1 -->
<g id="node1" class="node"><title>Node1</title>
<polygon fill="#bfbfbf" stroke="black" points="2.5,-0.5 2.5,-90.5 118.5,-90.5 118.5,-0.5 2.5,-0.5"/>
<text text-anchor="start" x="10.5" y="-78.5" font-family="Helvetica,sans-Serif" font-size="10.00">runner.communication.</text>
<text text-anchor="middle" x="60.5" y="-67.5" font-family="Helvetica,sans-Serif" font-size="10.00">_Transmitter</text>
<polyline fill="none" stroke="black" points="2.5,-60.5 118.5,-60.5 "/>
<text text-anchor="start" x="10.5" y="-48.5" font-family="Helvetica,sans-Serif" font-size="10.00">&#45; _connection</text>
<polyline fill="none" stroke="black" points="2.5,-41.5 118.5,-41.5 "/>
<text text-anchor="start" x="10.5" y="-29.5" font-family="Helvetica,sans-Serif" font-size="10.00">+ __init__()</text>
<text text-anchor="start" x="10.5" y="-18.5" font-family="Helvetica,sans-Serif" font-size="10.00">+ connect()</text>
<text text-anchor="start" x="10.5" y="-7.5" font-family="Helvetica,sans-Serif" font-size="10.00">+ connection()</text>
</g>
<!-- Node2 -->
<g id="node2" class="node"><title>Node2</title>
<g id="a_node2"><a xlink:href="classrunner_1_1identity_1_1Unique.html" target="_top" xlink:title="{runner.identity.Unique\n||+ __init__()\l}">
<polygon fill="none" stroke="black" points="4.5,-127.5 4.5,-184.5 116.5,-184.5 116.5,-127.5 4.5,-127.5"/>
<text text-anchor="middle" x="60.5" y="-172.5" font-family="Helvetica,sans-Serif" font-size="10.00">runner.identity.Unique</text>
<polyline fill="none" stroke="black" points="4.5,-165.5 116.5,-165.5 "/>
<text text-anchor="middle" x="60.5" y="-153.5" font-family="Helvetica,sans-Serif" font-size="10.00"> </text>
<polyline fill="none" stroke="black" points="4.5,-146.5 116.5,-146.5 "/>
<text text-anchor="start" x="12.5" y="-134.5" font-family="Helvetica,sans-Serif" font-size="10.00">+ __init__()</text>
</a>
</g>
</g>
<!-- Node2&#45;&gt;Node1 -->
<g id="edge1" class="edge"><title>Node2&#45;&gt;Node1</title>
<path fill="none" stroke="midnightblue" d="M60.5,-117.214C60.5,-108.609 60.5,-99.3943 60.5,-90.5541"/>
<polygon fill="none" stroke="midnightblue" points="57.0001,-117.34 60.5,-127.34 64.0001,-117.34 57.0001,-117.34"/>
</g>
<!-- Node3 -->
<g id="node3" class="node"><title>Node3</title>
<g id="a_node3"><a xlink:href="classrunner_1_1identity_1_1Identified.html" target="_top" xlink:title="{runner.identity.Identified\n|&#45; __identity\l|+ __init__()\l+ __hash__()\l+ __eq__()\l}">
<polygon fill="none" stroke="black" points="-7.10543e-15,-221.5 -7.10543e-15,-300.5 121,-300.5 121,-221.5 -7.10543e-15,-221.5"/>
<text text-anchor="middle" x="60.5" y="-288.5" font-family="Helvetica,sans-Serif" font-size="10.00">runner.identity.Identified</text>
<polyline fill="none" stroke="black" points="-7.10543e-15,-281.5 121,-281.5 "/>
<text text-anchor="start" x="8" y="-269.5" font-family="Helvetica,sans-Serif" font-size="10.00">&#45; __identity</text>
<polyline fill="none" stroke="black" points="-7.10543e-15,-262.5 121,-262.5 "/>
<text text-anchor="start" x="8" y="-250.5" font-family="Helvetica,sans-Serif" font-size="10.00">+ __init__()</text>
<text text-anchor="start" x="8" y="-239.5" font-family="Helvetica,sans-Serif" font-size="10.00">+ __hash__()</text>
<text text-anchor="start" x="8" y="-228.5" font-family="Helvetica,sans-Serif" font-size="10.00">+ __eq__()</text>
</a>
</g>
</g>
<!-- Node3&#45;&gt;Node2 -->
<g id="edge2" class="edge"><title>Node3&#45;&gt;Node2</title>
<path fill="none" stroke="midnightblue" d="M60.5,-211.163C60.5,-202.04 60.5,-192.806 60.5,-184.61"/>
<polygon fill="none" stroke="midnightblue" points="57.0001,-211.354 60.5,-221.354 64.0001,-211.354 57.0001,-211.354"/>
</g>
<!-- Node4 -->
<g id="node4" class="node"><title>Node4</title>
<polygon fill="none" stroke="#bfbfbf" points="39,-337.5 39,-394.5 82,-394.5 82,-337.5 39,-337.5"/>
<text text-anchor="middle" x="60.5" y="-382.5" font-family="Helvetica,sans-Serif" font-size="10.00">object</text>
<polyline fill="none" stroke="#bfbfbf" points="39,-375.5 82,-375.5 "/>
<text text-anchor="middle" x="60.5" y="-363.5" font-family="Helvetica,sans-Serif" font-size="10.00"> </text>
<polyline fill="none" stroke="#bfbfbf" points="39,-356.5 82,-356.5 "/>
<text text-anchor="middle" x="60.5" y="-344.5" font-family="Helvetica,sans-Serif" font-size="10.00"> </text>
</g>
<!-- Node4&#45;&gt;Node3 -->
<g id="edge3" class="edge"><title>Node4&#45;&gt;Node3</title>
<path fill="none" stroke="midnightblue" d="M60.5,-327.156C60.5,-318.473 60.5,-309.232 60.5,-300.52"/>
<polygon fill="none" stroke="midnightblue" points="57.0001,-327.398 60.5,-337.398 64.0001,-327.398 57.0001,-327.398"/>
</g>
</g>
</svg>
