<?xml version="1.0" encoding="UTF-8" standalone="no"?>
<!DOCTYPE svg PUBLIC "-//W3C//DTD SVG 1.1//EN"
 "http://www.w3.org/Graphics/SVG/1.1/DTD/svg11.dtd">
<!-- Generated by graphviz version 2.38.0 (20140413.2041)
 -->
<!-- Title: morunner.communication._Transmitter Pages: 1 -->
<svg width="372pt" height="508pt"
 viewBox="0.00 0.00 372.00 508.00" xmlns="http://www.w3.org/2000/svg" xmlns:xlink="http://www.w3.org/1999/xlink">
<g id="graph0" class="graph" transform="scale(1 1) rotate(0) translate(4 504)">
<title>morunner.communication._Transmitter</title>
<!-- Node1 -->
<g id="node1" class="node"><title>Node1</title>
<polygon fill="#bfbfbf" stroke="black" points="115.5,-105.5 115.5,-195.5 244.5,-195.5 244.5,-105.5 115.5,-105.5"/>
<text text-anchor="start" x="123.5" y="-183.5" font-family="Helvetica,sans-Serif" font-size="10.00">morunner.communication.</text>
<text text-anchor="middle" x="180" y="-172.5" font-family="Helvetica,sans-Serif" font-size="10.00">_Transmitter</text>
<polyline fill="none" stroke="black" points="115.5,-165.5 244.5,-165.5 "/>
<text text-anchor="start" x="123.5" y="-153.5" font-family="Helvetica,sans-Serif" font-size="10.00">&#45; _connection</text>
<polyline fill="none" stroke="black" points="115.5,-146.5 244.5,-146.5 "/>
<text text-anchor="start" x="123.5" y="-134.5" font-family="Helvetica,sans-Serif" font-size="10.00">+ __init__()</text>
<text text-anchor="start" x="123.5" y="-123.5" font-family="Helvetica,sans-Serif" font-size="10.00">+ connect()</text>
<text text-anchor="start" x="123.5" y="-112.5" font-family="Helvetica,sans-Serif" font-size="10.00">+ connection()</text>
</g>
<!-- Node5 -->
<g id="node5" class="node"><title>Node5</title>
<g id="a_node5"><a xlink:href="classmorunner_1_1communication_1_1Publisher.html" target="_top" xlink:title="{morunner.communication.Publisher\n||+ produce()\l}">
<polygon fill="none" stroke="black" points="0,-6 0,-63 170,-63 170,-6 0,-6"/>
<text text-anchor="middle" x="85" y="-51" font-family="Helvetica,sans-Serif" font-size="10.00">morunner.communication.Publisher</text>
<polyline fill="none" stroke="black" points="0,-44 170,-44 "/>
<text text-anchor="middle" x="85" y="-32" font-family="Helvetica,sans-Serif" font-size="10.00"> </text>
<polyline fill="none" stroke="black" points="0,-25 170,-25 "/>
<text text-anchor="start" x="8" y="-13" font-family="Helvetica,sans-Serif" font-size="10.00">+ produce()</text>
</a>
</g>
</g>
<!-- Node1&#45;&gt;Node5 -->
<g id="edge4" class="edge"><title>Node1&#45;&gt;Node5</title>
<path fill="none" stroke="midnightblue" d="M136.837,-97.7044C126.964,-85.8568 116.839,-73.7069 108.187,-63.3249"/>
<polygon fill="none" stroke="midnightblue" points="134.18,-99.983 143.271,-105.425 139.557,-95.5017 134.18,-99.983"/>
</g>
<!-- Node6 -->
<g id="node6" class="node"><title>Node6</title>
<g id="a_node6"><a xlink:href="classmorunner_1_1communication_1_1Subscriber.html" target="_top" xlink:title="{morunner.communication.Subscriber\n||+ listen()\l+ is_interested()\l}">
<polygon fill="none" stroke="black" points="188,-0.5 188,-68.5 364,-68.5 364,-0.5 188,-0.5"/>
<text text-anchor="middle" x="276" y="-56.5" font-family="Helvetica,sans-Serif" font-size="10.00">morunner.communication.Subscriber</text>
<polyline fill="none" stroke="black" points="188,-49.5 364,-49.5 "/>
<text text-anchor="middle" x="276" y="-37.5" font-family="Helvetica,sans-Serif" font-size="10.00"> </text>
<polyline fill="none" stroke="black" points="188,-30.5 364,-30.5 "/>
<text text-anchor="start" x="196" y="-18.5" font-family="Helvetica,sans-Serif" font-size="10.00">+ listen()</text>
<text text-anchor="start" x="196" y="-7.5" font-family="Helvetica,sans-Serif" font-size="10.00">+ is_interested()</text>
</a>
</g>
</g>
<!-- Node1&#45;&gt;Node6 -->
<g id="edge5" class="edge"><title>Node1&#45;&gt;Node6</title>
<path fill="none" stroke="midnightblue" d="M223.668,-97.6445C231.906,-87.861 240.317,-77.8738 247.917,-68.8483"/>
<polygon fill="none" stroke="midnightblue" points="220.88,-95.521 217.116,-105.425 226.235,-100.03 220.88,-95.521"/>
</g>
<!-- Node2 -->
<g id="node2" class="node"><title>Node2</title>
<g id="a_node2"><a xlink:href="classmorunner_1_1identity_1_1Unique.html" target="_top" xlink:title="{morunner.identity.Unique\n||+ __init__()\l}">
<polygon fill="none" stroke="black" points="117.5,-232.5 117.5,-289.5 242.5,-289.5 242.5,-232.5 117.5,-232.5"/>
<text text-anchor="middle" x="180" y="-277.5" font-family="Helvetica,sans-Serif" font-size="10.00">morunner.identity.Unique</text>
<polyline fill="none" stroke="black" points="117.5,-270.5 242.5,-270.5 "/>
<text text-anchor="middle" x="180" y="-258.5" font-family="Helvetica,sans-Serif" font-size="10.00"> </text>
<polyline fill="none" stroke="black" points="117.5,-251.5 242.5,-251.5 "/>
<text text-anchor="start" x="125.5" y="-239.5" font-family="Helvetica,sans-Serif" font-size="10.00">+ __init__()</text>
</a>
</g>
</g>
<!-- Node2&#45;&gt;Node1 -->
<g id="edge1" class="edge"><title>Node2&#45;&gt;Node1</title>
<path fill="none" stroke="midnightblue" d="M180,-222.214C180,-213.609 180,-204.394 180,-195.554"/>
<polygon fill="none" stroke="midnightblue" points="176.5,-222.34 180,-232.34 183.5,-222.34 176.5,-222.34"/>
</g>
<!-- Node3 -->
<g id="node3" class="node"><title>Node3</title>
<g id="a_node3"><a xlink:href="classmorunner_1_1identity_1_1Identified.html" target="_top" xlink:title="{morunner.identity.Identified\n|&#45; __identity\l|+ __init__()\l+ __hash__()\l+ __eq__()\l}">
<polygon fill="none" stroke="black" points="113,-326.5 113,-405.5 247,-405.5 247,-326.5 113,-326.5"/>
<text text-anchor="middle" x="180" y="-393.5" font-family="Helvetica,sans-Serif" font-size="10.00">morunner.identity.Identified</text>
<polyline fill="none" stroke="black" points="113,-386.5 247,-386.5 "/>
<text text-anchor="start" x="121" y="-374.5" font-family="Helvetica,sans-Serif" font-size="10.00">&#45; __identity</text>
<polyline fill="none" stroke="black" points="113,-367.5 247,-367.5 "/>
<text text-anchor="start" x="121" y="-355.5" font-family="Helvetica,sans-Serif" font-size="10.00">+ __init__()</text>
<text text-anchor="start" x="121" y="-344.5" font-family="Helvetica,sans-Serif" font-size="10.00">+ __hash__()</text>
<text text-anchor="start" x="121" y="-333.5" font-family="Helvetica,sans-Serif" font-size="10.00">+ __eq__()</text>
</a>
</g>
</g>
<!-- Node3&#45;&gt;Node2 -->
<g id="edge2" class="edge"><title>Node3&#45;&gt;Node2</title>
<path fill="none" stroke="midnightblue" d="M180,-316.163C180,-307.04 180,-297.806 180,-289.61"/>
<polygon fill="none" stroke="midnightblue" points="176.5,-316.354 180,-326.354 183.5,-316.354 176.5,-316.354"/>
</g>
<!-- Node4 -->
<g id="node4" class="node"><title>Node4</title>
<polygon fill="none" stroke="#bfbfbf" points="158.5,-442.5 158.5,-499.5 201.5,-499.5 201.5,-442.5 158.5,-442.5"/>
<text text-anchor="middle" x="180" y="-487.5" font-family="Helvetica,sans-Serif" font-size="10.00">object</text>
<polyline fill="none" stroke="#bfbfbf" points="158.5,-480.5 201.5,-480.5 "/>
<text text-anchor="middle" x="180" y="-468.5" font-family="Helvetica,sans-Serif" font-size="10.00"> </text>
<polyline fill="none" stroke="#bfbfbf" points="158.5,-461.5 201.5,-461.5 "/>
<text text-anchor="middle" x="180" y="-449.5" font-family="Helvetica,sans-Serif" font-size="10.00"> </text>
</g>
<!-- Node4&#45;&gt;Node3 -->
<g id="edge3" class="edge"><title>Node4&#45;&gt;Node3</title>
<path fill="none" stroke="midnightblue" d="M180,-432.156C180,-423.473 180,-414.232 180,-405.52"/>
<polygon fill="none" stroke="midnightblue" points="176.5,-432.398 180,-442.398 183.5,-432.398 176.5,-432.398"/>
</g>
</g>
</svg>
