<?xml version="1.0" encoding="UTF-8" standalone="no"?>
<!DOCTYPE svg PUBLIC "-//W3C//DTD SVG 1.1//EN"
 "http://www.w3.org/Graphics/SVG/1.1/DTD/svg11.dtd">
<!-- Generated by graphviz version 2.38.0 (20140413.2041)
 -->
<!-- Title: runner.communication._Transmitter Pages: 1 -->
<svg width="344pt" height="508pt"
 viewBox="0.00 0.00 344.00 508.00" xmlns="http://www.w3.org/2000/svg" xmlns:xlink="http://www.w3.org/1999/xlink">
<g id="graph0" class="graph" transform="scale(1 1) rotate(0) translate(4 504)">
<title>runner.communication._Transmitter</title>
<!-- Node1 -->
<g id="node1" class="node"><title>Node1</title>
<polygon fill="#bfbfbf" stroke="black" points="108,-105.5 108,-195.5 224,-195.5 224,-105.5 108,-105.5"/>
<text text-anchor="start" x="116" y="-183.5" font-family="Helvetica,sans-Serif" font-size="10.00">runner.communication.</text>
<text text-anchor="middle" x="166" y="-172.5" font-family="Helvetica,sans-Serif" font-size="10.00">_Transmitter</text>
<polyline fill="none" stroke="black" points="108,-165.5 224,-165.5 "/>
<text text-anchor="start" x="116" y="-153.5" font-family="Helvetica,sans-Serif" font-size="10.00">&#45; _connection</text>
<polyline fill="none" stroke="black" points="108,-146.5 224,-146.5 "/>
<text text-anchor="start" x="116" y="-134.5" font-family="Helvetica,sans-Serif" font-size="10.00">+ __init__()</text>
<text text-anchor="start" x="116" y="-123.5" font-family="Helvetica,sans-Serif" font-size="10.00">+ connect()</text>
<text text-anchor="start" x="116" y="-112.5" font-family="Helvetica,sans-Serif" font-size="10.00">+ connection()</text>
</g>
<!-- Node5 -->
<g id="node5" class="node"><title>Node5</title>
<g id="a_node5"><a xlink:href="classrunner_1_1communication_1_1Publisher.html" target="_top" xlink:title="{runner.communication.Publisher\n||+ produce()\l}">
<polygon fill="none" stroke="black" points="0,-6 0,-63 156,-63 156,-6 0,-6"/>
<text text-anchor="middle" x="78" y="-51" font-family="Helvetica,sans-Serif" font-size="10.00">runner.communication.Publisher</text>
<polyline fill="none" stroke="black" points="0,-44 156,-44 "/>
<text text-anchor="middle" x="78" y="-32" font-family="Helvetica,sans-Serif" font-size="10.00"> </text>
<polyline fill="none" stroke="black" points="0,-25 156,-25 "/>
<text text-anchor="start" x="8" y="-13" font-family="Helvetica,sans-Serif" font-size="10.00">+ produce()</text>
</a>
</g>
</g>
<!-- Node1&#45;&gt;Node5 -->
<g id="edge4" class="edge"><title>Node1&#45;&gt;Node5</title>
<path fill="none" stroke="midnightblue" d="M125.756,-97.3658C116.693,-85.6256 107.417,-73.608 99.4788,-63.3249"/>
<polygon fill="none" stroke="midnightblue" points="123.096,-99.6474 131.977,-105.425 128.637,-95.37 123.096,-99.6474"/>
</g>
<!-- Node6 -->
<g id="node6" class="node"><title>Node6</title>
<g id="a_node6"><a xlink:href="classrunner_1_1communication_1_1Subscriber.html" target="_top" xlink:title="{runner.communication.Subscriber\n||+ listen()\l+ is_interested()\l}">
<polygon fill="none" stroke="black" points="174,-0.5 174,-68.5 336,-68.5 336,-0.5 174,-0.5"/>
<text text-anchor="middle" x="255" y="-56.5" font-family="Helvetica,sans-Serif" font-size="10.00">runner.communication.Subscriber</text>
<polyline fill="none" stroke="black" points="174,-49.5 336,-49.5 "/>
<text text-anchor="middle" x="255" y="-37.5" font-family="Helvetica,sans-Serif" font-size="10.00"> </text>
<polyline fill="none" stroke="black" points="174,-30.5 336,-30.5 "/>
<text text-anchor="start" x="182" y="-18.5" font-family="Helvetica,sans-Serif" font-size="10.00">+ listen()</text>
<text text-anchor="start" x="182" y="-7.5" font-family="Helvetica,sans-Serif" font-size="10.00">+ is_interested()</text>
</a>
</g>
</g>
<!-- Node1&#45;&gt;Node6 -->
<g id="edge5" class="edge"><title>Node1&#45;&gt;Node6</title>
<path fill="none" stroke="midnightblue" d="M206.711,-97.3538C214.276,-87.6634 221.988,-77.7844 228.965,-68.8483"/>
<polygon fill="none" stroke="midnightblue" points="203.805,-95.3884 200.41,-105.425 209.322,-99.6961 203.805,-95.3884"/>
</g>
<!-- Node2 -->
<g id="node2" class="node"><title>Node2</title>
<g id="a_node2"><a xlink:href="classrunner_1_1identity_1_1Unique.html" target="_top" xlink:title="{runner.identity.Unique\n||+ __init__()\l}">
<polygon fill="none" stroke="black" points="110,-232.5 110,-289.5 222,-289.5 222,-232.5 110,-232.5"/>
<text text-anchor="middle" x="166" y="-277.5" font-family="Helvetica,sans-Serif" font-size="10.00">runner.identity.Unique</text>
<polyline fill="none" stroke="black" points="110,-270.5 222,-270.5 "/>
<text text-anchor="middle" x="166" y="-258.5" font-family="Helvetica,sans-Serif" font-size="10.00"> </text>
<polyline fill="none" stroke="black" points="110,-251.5 222,-251.5 "/>
<text text-anchor="start" x="118" y="-239.5" font-family="Helvetica,sans-Serif" font-size="10.00">+ __init__()</text>
</a>
</g>
</g>
<!-- Node2&#45;&gt;Node1 -->
<g id="edge1" class="edge"><title>Node2&#45;&gt;Node1</title>
<path fill="none" stroke="midnightblue" d="M166,-222.214C166,-213.609 166,-204.394 166,-195.554"/>
<polygon fill="none" stroke="midnightblue" points="162.5,-222.34 166,-232.34 169.5,-222.34 162.5,-222.34"/>
</g>
<!-- Node3 -->
<g id="node3" class="node"><title>Node3</title>
<g id="a_node3"><a xlink:href="classrunner_1_1identity_1_1Identified.html" target="_top" xlink:title="{runner.identity.Identified\n|&#45; __identity\l|+ __init__()\l+ __hash__()\l+ __eq__()\l}">
<polygon fill="none" stroke="black" points="105.5,-326.5 105.5,-405.5 226.5,-405.5 226.5,-326.5 105.5,-326.5"/>
<text text-anchor="middle" x="166" y="-393.5" font-family="Helvetica,sans-Serif" font-size="10.00">runner.identity.Identified</text>
<polyline fill="none" stroke="black" points="105.5,-386.5 226.5,-386.5 "/>
<text text-anchor="start" x="113.5" y="-374.5" font-family="Helvetica,sans-Serif" font-size="10.00">&#45; __identity</text>
<polyline fill="none" stroke="black" points="105.5,-367.5 226.5,-367.5 "/>
<text text-anchor="start" x="113.5" y="-355.5" font-family="Helvetica,sans-Serif" font-size="10.00">+ __init__()</text>
<text text-anchor="start" x="113.5" y="-344.5" font-family="Helvetica,sans-Serif" font-size="10.00">+ __hash__()</text>
<text text-anchor="start" x="113.5" y="-333.5" font-family="Helvetica,sans-Serif" font-size="10.00">+ __eq__()</text>
</a>
</g>
</g>
<!-- Node3&#45;&gt;Node2 -->
<g id="edge2" class="edge"><title>Node3&#45;&gt;Node2</title>
<path fill="none" stroke="midnightblue" d="M166,-316.163C166,-307.04 166,-297.806 166,-289.61"/>
<polygon fill="none" stroke="midnightblue" points="162.5,-316.354 166,-326.354 169.5,-316.354 162.5,-316.354"/>
</g>
<!-- Node4 -->
<g id="node4" class="node"><title>Node4</title>
<polygon fill="none" stroke="#bfbfbf" points="144.5,-442.5 144.5,-499.5 187.5,-499.5 187.5,-442.5 144.5,-442.5"/>
<text text-anchor="middle" x="166" y="-487.5" font-family="Helvetica,sans-Serif" font-size="10.00">object</text>
<polyline fill="none" stroke="#bfbfbf" points="144.5,-480.5 187.5,-480.5 "/>
<text text-anchor="middle" x="166" y="-468.5" font-family="Helvetica,sans-Serif" font-size="10.00"> </text>
<polyline fill="none" stroke="#bfbfbf" points="144.5,-461.5 187.5,-461.5 "/>
<text text-anchor="middle" x="166" y="-449.5" font-family="Helvetica,sans-Serif" font-size="10.00"> </text>
</g>
<!-- Node4&#45;&gt;Node3 -->
<g id="edge3" class="edge"><title>Node4&#45;&gt;Node3</title>
<path fill="none" stroke="midnightblue" d="M166,-432.156C166,-423.473 166,-414.232 166,-405.52"/>
<polygon fill="none" stroke="midnightblue" points="162.5,-432.398 166,-442.398 169.5,-432.398 162.5,-432.398"/>
</g>
</g>
</svg>
