<?xml version="1.0" encoding="UTF-8" standalone="no"?>
<!DOCTYPE svg PUBLIC "-//W3C//DTD SVG 1.1//EN"
 "http://www.w3.org/Graphics/SVG/1.1/DTD/svg11.dtd">
<!-- Generated by graphviz version 2.38.0 (20140413.2041)
 -->
<!-- Title: runner.communication._Transmitter.connection Pages: 1 -->
<svg width="360pt" height="66pt"
 viewBox="0.00 0.00 360.00 66.00" xmlns="http://www.w3.org/2000/svg" xmlns:xlink="http://www.w3.org/1999/xlink">
<g id="graph0" class="graph" transform="scale(1 1) rotate(0) translate(4 62)">
<title>runner.communication._Transmitter.connection</title>
<!-- Node1 -->
<g id="node1" class="node"><title>Node1</title>
<polygon fill="#bfbfbf" stroke="black" points="0,-14 0,-44 122,-44 122,-14 0,-14"/>
<text text-anchor="start" x="8" y="-32" font-family="Helvetica,sans-Serif" font-size="10.00">runner.communication.</text>
<text text-anchor="middle" x="61" y="-21" font-family="Helvetica,sans-Serif" font-size="10.00">_Transmitter.connection</text>
</g>
<!-- Node2 -->
<g id="node2" class="node"><title>Node2</title>
<g id="a_node2"><a xlink:href="classrunner_1_1communication_1_1Subscriber.html#a7e63bf085b8658ee6439cfd4629e9988" target="_top" xlink:title="runner.communication.Subscriber.listen">
<polygon fill="none" stroke="black" points="161,-38.5 161,-57.5 349,-57.5 349,-38.5 161,-38.5"/>
<text text-anchor="middle" x="255" y="-45.5" font-family="Helvetica,sans-Serif" font-size="10.00">runner.communication.Subscriber.listen</text>
</a>
</g>
</g>
<!-- Node1&#45;&gt;Node2 -->
<g id="edge1" class="edge"><title>Node1&#45;&gt;Node2</title>
<path fill="none" stroke="midnightblue" d="M132.214,-35.9483C141.566,-36.8737 151.27,-37.834 160.935,-38.7905"/>
<polygon fill="midnightblue" stroke="midnightblue" points="132.519,-32.4615 122.223,-34.9596 131.83,-39.4274 132.519,-32.4615"/>
</g>
<!-- Node3 -->
<g id="node3" class="node"><title>Node3</title>
<g id="a_node3"><a xlink:href="classrunner_1_1communication_1_1Publisher.html#a5428c27894232f2e285b85ee32f03860" target="_top" xlink:title="runner.communication.Publisher.produce">
<polygon fill="none" stroke="black" points="158,-0.5 158,-19.5 352,-19.5 352,-0.5 158,-0.5"/>
<text text-anchor="middle" x="255" y="-7.5" font-family="Helvetica,sans-Serif" font-size="10.00">runner.communication.Publisher.produce</text>
</a>
</g>
</g>
<!-- Node1&#45;&gt;Node3 -->
<g id="edge2" class="edge"><title>Node1&#45;&gt;Node3</title>
<path fill="none" stroke="midnightblue" d="M132.222,-22.0509C140.548,-21.227 149.154,-20.3754 157.762,-19.5236"/>
<polygon fill="midnightblue" stroke="midnightblue" points="131.83,-18.5726 122.223,-23.0404 132.519,-25.5385 131.83,-18.5726"/>
</g>
</g>
</svg>
