<?xml version="1.0" encoding="UTF-8" standalone="no"?>
<!DOCTYPE svg PUBLIC "-//W3C//DTD SVG 1.1//EN"
 "http://www.w3.org/Graphics/SVG/1.1/DTD/svg11.dtd">
<!-- Generated by graphviz version 2.38.0 (20140413.2041)
 -->
<!-- Title: communication._Transmitter.connection Pages: 1 -->
<svg width="399pt" height="66pt"
 viewBox="0.00 0.00 399.00 66.00" xmlns="http://www.w3.org/2000/svg" xmlns:xlink="http://www.w3.org/1999/xlink">
<g id="graph0" class="graph" transform="scale(1 1) rotate(0) translate(4 62)">
<title>communication._Transmitter.connection</title>
<!-- Node1 -->
<g id="node1" class="node"><title>Node1</title>
<polygon fill="#bfbfbf" stroke="black" points="0,-19.5 0,-38.5 191,-38.5 191,-19.5 0,-19.5"/>
<text text-anchor="middle" x="95.5" y="-26.5" font-family="Helvetica,sans-Serif" font-size="10.00">communication._Transmitter.connection</text>
</g>
<!-- Node2 -->
<g id="node2" class="node"><title>Node2</title>
<g id="a_node2"><a xlink:href="classcommunication_1_1Subscriber.html#a9c46d95ba346a8d95da29088fc130f93" target="_top" xlink:title="communication.Subscriber.listen">
<polygon fill="none" stroke="black" points="230,-38.5 230,-57.5 388,-57.5 388,-38.5 230,-38.5"/>
<text text-anchor="middle" x="309" y="-45.5" font-family="Helvetica,sans-Serif" font-size="10.00">communication.Subscriber.listen</text>
</a>
</g>
</g>
<!-- Node1&#45;&gt;Node2 -->
<g id="edge1" class="edge"><title>Node1&#45;&gt;Node2</title>
<path fill="none" stroke="midnightblue" d="M201.185,-38.4043C210.864,-39.2739 220.556,-40.1445 229.935,-40.9871"/>
<polygon fill="midnightblue" stroke="midnightblue" points="201.388,-34.9086 191.115,-37.4997 200.762,-41.8805 201.388,-34.9086"/>
</g>
<!-- Node3 -->
<g id="node3" class="node"><title>Node3</title>
<g id="a_node3"><a xlink:href="classcommunication_1_1Publisher.html#ac345fa66174cd778013cfcc2c101a047" target="_top" xlink:title="communication.Publisher.produce">
<polygon fill="none" stroke="black" points="227,-0.5 227,-19.5 391,-19.5 391,-0.5 227,-0.5"/>
<text text-anchor="middle" x="309" y="-7.5" font-family="Helvetica,sans-Serif" font-size="10.00">communication.Publisher.produce</text>
</a>
</g>
</g>
<!-- Node1&#45;&gt;Node3 -->
<g id="edge2" class="edge"><title>Node1&#45;&gt;Node3</title>
<path fill="none" stroke="midnightblue" d="M201.169,-19.5971C209.749,-18.8264 218.338,-18.0548 226.711,-17.3026"/>
<polygon fill="midnightblue" stroke="midnightblue" points="200.762,-16.1195 191.115,-20.5003 201.388,-23.0914 200.762,-16.1195"/>
</g>
</g>
</svg>
