<?xml version="1.0" encoding="UTF-8" standalone="no"?>
<!DOCTYPE svg PUBLIC "-//W3C//DTD SVG 1.1//EN"
 "http://www.w3.org/Graphics/SVG/1.1/DTD/svg11.dtd">
<!-- Generated by graphviz version 2.38.0 (20140413.2041)
 -->
<!-- Title: morunner.communication._Transmitter.connection Pages: 1 -->
<svg width="380pt" height="66pt"
 viewBox="0.00 0.00 380.00 66.00" xmlns="http://www.w3.org/2000/svg" xmlns:xlink="http://www.w3.org/1999/xlink">
<g id="graph0" class="graph" transform="scale(1 1) rotate(0) translate(4 62)">
<title>morunner.communication._Transmitter.connection</title>
<!-- Node1 -->
<g id="node1" class="node"><title>Node1</title>
<polygon fill="#bfbfbf" stroke="black" points="0,-14 0,-44 129,-44 129,-14 0,-14"/>
<text text-anchor="start" x="8" y="-32" font-family="Helvetica,sans-Serif" font-size="10.00">morunner.communication.</text>
<text text-anchor="middle" x="64.5" y="-21" font-family="Helvetica,sans-Serif" font-size="10.00">_Transmitter.connection</text>
</g>
<!-- Node2 -->
<g id="node2" class="node"><title>Node2</title>
<g id="a_node2"><a xlink:href="classmorunner_1_1communication_1_1Subscriber.html#ad16726eaf7536b090444a89c1d8b047b" target="_top" xlink:title="morunner.communication.Subscriber.listen">
<polygon fill="none" stroke="black" points="167.5,-38.5 167.5,-57.5 369.5,-57.5 369.5,-38.5 167.5,-38.5"/>
<text text-anchor="middle" x="268.5" y="-45.5" font-family="Helvetica,sans-Serif" font-size="10.00">morunner.communication.Subscriber.listen</text>
</a>
</g>
</g>
<!-- Node1&#45;&gt;Node2 -->
<g id="edge1" class="edge"><title>Node1&#45;&gt;Node2</title>
<path fill="none" stroke="midnightblue" d="M139.268,-35.9386C148.378,-36.7954 157.806,-37.6823 167.226,-38.5683"/>
<polygon fill="midnightblue" stroke="midnightblue" points="139.421,-32.4376 129.137,-34.9856 138.765,-39.4068 139.421,-32.4376"/>
</g>
<!-- Node3 -->
<g id="node3" class="node"><title>Node3</title>
<g id="a_node3"><a xlink:href="classmorunner_1_1communication_1_1Publisher.html#a31e6bd7d0f60bfde37c026ddd55ff8b6" target="_top" xlink:title="morunner.communication.Publisher.produce">
<polygon fill="none" stroke="black" points="165,-0.5 165,-19.5 372,-19.5 372,-0.5 165,-0.5"/>
<text text-anchor="middle" x="268.5" y="-7.5" font-family="Helvetica,sans-Serif" font-size="10.00">morunner.communication.Publisher.produce</text>
</a>
</g>
</g>
<!-- Node1&#45;&gt;Node3 -->
<g id="edge2" class="edge"><title>Node1&#45;&gt;Node3</title>
<path fill="none" stroke="midnightblue" d="M139.361,-22.0527C148.202,-21.2211 157.344,-20.3612 166.486,-19.5014"/>
<polygon fill="midnightblue" stroke="midnightblue" points="138.765,-18.5932 129.137,-23.0144 139.421,-25.5624 138.765,-18.5932"/>
</g>
</g>
</svg>
