<?xml version="1.0" encoding="UTF-8" standalone="no"?>
<!DOCTYPE svg PUBLIC "-//W3C//DTD SVG 1.1//EN"
 "http://www.w3.org/Graphics/SVG/1.1/DTD/svg11.dtd">
<!-- Generated by graphviz version 2.38.0 (20140413.2041)
 -->
<!-- Title: Graphical Class Hierarchy Pages: 1 -->
<svg width="847pt" height="154pt"
 viewBox="0.00 0.00 847.00 154.00" xmlns="http://www.w3.org/2000/svg" xmlns:xlink="http://www.w3.org/1999/xlink">
<g id="graph0" class="graph" transform="scale(1 1) rotate(0) translate(4 150)">
<title>Graphical Class Hierarchy</title>
<!-- Node1 -->
<g id="node1" class="node"><title>Node1</title>
<polygon fill="none" stroke="#bfbfbf" points="0,-60.5 0,-79.5 43,-79.5 43,-60.5 0,-60.5"/>
<text text-anchor="middle" x="21.5" y="-67.5" font-family="Helvetica,sans-Serif" font-size="10.00">object</text>
</g>
<!-- Node2 -->
<g id="node2" class="node"><title>Node2</title>
<g id="a_node2"><a xlink:href="classmorunner_1_1break_1_1Task.html" target="_top" xlink:title="morunner.break.Task">
<polygon fill="none" stroke="black" points="109,-126.5 109,-145.5 218,-145.5 218,-126.5 109,-126.5"/>
<text text-anchor="middle" x="163.5" y="-133.5" font-family="Helvetica,sans-Serif" font-size="10.00">morunner.break.Task</text>
</a>
</g>
</g>
<!-- Node1&#45;&gt;Node2 -->
<g id="edge1" class="edge"><title>Node1&#45;&gt;Node2</title>
<path fill="none" stroke="midnightblue" d="M38.7303,-87.084C49.2878,-97.226 63.8674,-109.525 79,-117 88.1974,-121.543 98.5029,-125.018 108.651,-127.669"/>
<polygon fill="midnightblue" stroke="midnightblue" points="41.0482,-84.4525 31.4982,-79.8645 36.1027,-89.4065 41.0482,-84.4525"/>
</g>
<!-- Node3 -->
<g id="node3" class="node"><title>Node3</title>
<g id="a_node3"><a xlink:href="classmorunner_1_1communication_1_1MessageDescription.html" target="_top" xlink:title="morunner.communication.Message\lDescription">
<polygon fill="none" stroke="black" points="79,-77 79,-107 248,-107 248,-77 79,-77"/>
<text text-anchor="start" x="87" y="-95" font-family="Helvetica,sans-Serif" font-size="10.00">morunner.communication.Message</text>
<text text-anchor="middle" x="163.5" y="-84" font-family="Helvetica,sans-Serif" font-size="10.00">Description</text>
</a>
</g>
</g>
<!-- Node1&#45;&gt;Node3 -->
<g id="edge2" class="edge"><title>Node1&#45;&gt;Node3</title>
<path fill="none" stroke="midnightblue" d="M53.1496,-74.8164C60.962,-76.044 69.743,-77.4239 78.8445,-78.8541"/>
<polygon fill="midnightblue" stroke="midnightblue" points="53.5796,-71.3411 43.1575,-73.2462 52.4929,-78.2562 53.5796,-71.3411"/>
</g>
<!-- Node4 -->
<g id="node4" class="node"><title>Node4</title>
<g id="a_node4"><a xlink:href="classmorunner_1_1identity_1_1Identified.html" target="_top" xlink:title="morunner.identity.Identified">
<polygon fill="none" stroke="black" points="96.5,-38.5 96.5,-57.5 230.5,-57.5 230.5,-38.5 96.5,-38.5"/>
<text text-anchor="middle" x="163.5" y="-45.5" font-family="Helvetica,sans-Serif" font-size="10.00">morunner.identity.Identified</text>
</a>
</g>
</g>
<!-- Node1&#45;&gt;Node4 -->
<g id="edge3" class="edge"><title>Node1&#45;&gt;Node4</title>
<path fill="none" stroke="midnightblue" d="M53.3629,-65.1501C67.6047,-62.9121 85.0315,-60.1736 101.743,-57.5475"/>
<polygon fill="midnightblue" stroke="midnightblue" points="52.4929,-61.7438 43.1575,-66.7538 53.5796,-68.6589 52.4929,-61.7438"/>
</g>
<!-- Node11 -->
<g id="node11" class="node"><title>Node11</title>
<g id="a_node11"><a xlink:href="classmorunner_1_1registry_1_1Registry.html" target="_top" xlink:title="morunner.registry.Registry">
<polygon fill="none" stroke="black" points="97.5,-0.5 97.5,-19.5 229.5,-19.5 229.5,-0.5 97.5,-0.5"/>
<text text-anchor="middle" x="163.5" y="-7.5" font-family="Helvetica,sans-Serif" font-size="10.00">morunner.registry.Registry</text>
</a>
</g>
</g>
<!-- Node1&#45;&gt;Node11 -->
<g id="edge10" class="edge"><title>Node1&#45;&gt;Node11</title>
<path fill="none" stroke="midnightblue" d="M40.5903,-53.9495C51.133,-45.3772 65.0649,-35.3192 79,-29 87.5302,-25.1318 96.9188,-22.0168 106.227,-19.5185"/>
<polygon fill="midnightblue" stroke="midnightblue" points="38.3192,-51.2862 32.9265,-60.4059 42.8293,-56.6397 38.3192,-51.2862"/>
</g>
<!-- Node5 -->
<g id="node5" class="node"><title>Node5</title>
<g id="a_node5"><a xlink:href="classmorunner_1_1identity_1_1Unique.html" target="_top" xlink:title="morunner.identity.Unique">
<polygon fill="none" stroke="black" points="284,-38.5 284,-57.5 409,-57.5 409,-38.5 284,-38.5"/>
<text text-anchor="middle" x="346.5" y="-45.5" font-family="Helvetica,sans-Serif" font-size="10.00">morunner.identity.Unique</text>
</a>
</g>
</g>
<!-- Node4&#45;&gt;Node5 -->
<g id="edge4" class="edge"><title>Node4&#45;&gt;Node5</title>
<path fill="none" stroke="midnightblue" d="M240.918,-48C255.216,-48 269.994,-48 283.778,-48"/>
<polygon fill="midnightblue" stroke="midnightblue" points="240.613,-44.5001 230.613,-48 240.613,-51.5001 240.613,-44.5001"/>
</g>
<!-- Node6 -->
<g id="node6" class="node"><title>Node6</title>
<g id="a_node6"><a xlink:href="classmorunner_1_1communication_1_1__Transmitter.html" target="_top" xlink:title="morunner.communication.\l_Transmitter">
<polygon fill="none" stroke="black" points="471.5,-77 471.5,-107 600.5,-107 600.5,-77 471.5,-77"/>
<text text-anchor="start" x="479.5" y="-95" font-family="Helvetica,sans-Serif" font-size="10.00">morunner.communication.</text>
<text text-anchor="middle" x="536" y="-84" font-family="Helvetica,sans-Serif" font-size="10.00">_Transmitter</text>
</a>
</g>
</g>
<!-- Node5&#45;&gt;Node6 -->
<g id="edge5" class="edge"><title>Node5&#45;&gt;Node6</title>
<path fill="none" stroke="midnightblue" d="M398.188,-59.8948C420.662,-65.1686 447.353,-71.4322 471.167,-77.0206"/>
<polygon fill="midnightblue" stroke="midnightblue" points="398.72,-56.4246 388.185,-57.5473 397.121,-63.2395 398.72,-56.4246"/>
</g>
<!-- Node9 -->
<g id="node9" class="node"><title>Node9</title>
<g id="a_node9"><a xlink:href="classmorunner_1_1communication_1_1Broadcaster.html" target="_top" xlink:title="morunner.communication.Broadcaster">
<polygon fill="none" stroke="black" points="445,-38.5 445,-57.5 627,-57.5 627,-38.5 445,-38.5"/>
<text text-anchor="middle" x="536" y="-45.5" font-family="Helvetica,sans-Serif" font-size="10.00">morunner.communication.Broadcaster</text>
</a>
</g>
</g>
<!-- Node5&#45;&gt;Node9 -->
<g id="edge8" class="edge"><title>Node5&#45;&gt;Node9</title>
<path fill="none" stroke="midnightblue" d="M419.22,-48C427.589,-48 436.206,-48 444.784,-48"/>
<polygon fill="midnightblue" stroke="midnightblue" points="419.154,-44.5001 409.154,-48 419.154,-51.5001 419.154,-44.5001"/>
</g>
<!-- Node10 -->
<g id="node10" class="node"><title>Node10</title>
<g id="a_node10"><a xlink:href="classmorunner_1_1communication_1_1Message.html" target="_top" xlink:title="morunner.communication.Message">
<polygon fill="none" stroke="black" points="451.5,-0.5 451.5,-19.5 620.5,-19.5 620.5,-0.5 451.5,-0.5"/>
<text text-anchor="middle" x="536" y="-7.5" font-family="Helvetica,sans-Serif" font-size="10.00">morunner.communication.Message</text>
</a>
</g>
</g>
<!-- Node5&#45;&gt;Node10 -->
<g id="edge9" class="edge"><title>Node5&#45;&gt;Node10</title>
<path fill="none" stroke="midnightblue" d="M404.784,-36.3905C431.451,-30.986 462.781,-24.6365 488.026,-19.5201"/>
<polygon fill="midnightblue" stroke="midnightblue" points="403.92,-32.9944 394.814,-38.411 405.31,-39.8549 403.92,-32.9944"/>
</g>
<!-- Node7 -->
<g id="node7" class="node"><title>Node7</title>
<g id="a_node7"><a xlink:href="classmorunner_1_1communication_1_1Publisher.html" target="_top" xlink:title="morunner.communication.Publisher">
<polygon fill="none" stroke="black" points="666,-101.5 666,-120.5 836,-120.5 836,-101.5 666,-101.5"/>
<text text-anchor="middle" x="751" y="-108.5" font-family="Helvetica,sans-Serif" font-size="10.00">morunner.communication.Publisher</text>
</a>
</g>
</g>
<!-- Node6&#45;&gt;Node7 -->
<g id="edge6" class="edge"><title>Node6&#45;&gt;Node7</title>
<path fill="none" stroke="midnightblue" d="M610.882,-98.5905C628.605,-100.171 647.662,-101.871 665.814,-103.49"/>
<polygon fill="midnightblue" stroke="midnightblue" points="610.89,-95.0773 600.619,-97.6749 610.268,-102.05 610.89,-95.0773"/>
</g>
<!-- Node8 -->
<g id="node8" class="node"><title>Node8</title>
<g id="a_node8"><a xlink:href="classmorunner_1_1communication_1_1Subscriber.html" target="_top" xlink:title="morunner.communication.Subscriber">
<polygon fill="none" stroke="black" points="663,-63.5 663,-82.5 839,-82.5 839,-63.5 663,-63.5"/>
<text text-anchor="middle" x="751" y="-70.5" font-family="Helvetica,sans-Serif" font-size="10.00">morunner.communication.Subscriber</text>
</a>
</g>
</g>
<!-- Node6&#45;&gt;Node8 -->
<g id="edge7" class="edge"><title>Node6&#45;&gt;Node8</title>
<path fill="none" stroke="midnightblue" d="M610.856,-85.4119C627.571,-83.9209 645.473,-82.324 662.685,-80.7887"/>
<polygon fill="midnightblue" stroke="midnightblue" points="610.268,-81.9504 600.619,-86.3251 610.89,-88.9227 610.268,-81.9504"/>
</g>
</g>
</svg>
