<?xml version="1.0" encoding="UTF-8" standalone="no"?>
<!DOCTYPE svg PUBLIC "-//W3C//DTD SVG 1.1//EN"
 "http://www.w3.org/Graphics/SVG/1.1/DTD/svg11.dtd">
<!-- Generated by graphviz version 2.38.0 (20140413.2041)
 -->
<!-- Title: Graphical Class Hierarchy Pages: 1 -->
<svg width="248pt" height="66pt"
 viewBox="0.00 0.00 248.00 66.00" xmlns="http://www.w3.org/2000/svg" xmlns:xlink="http://www.w3.org/1999/xlink">
<g id="graph0" class="graph" transform="scale(1 1) rotate(0) translate(4 62)">
<title>Graphical Class Hierarchy</title>
<!-- Node1 -->
<g id="node1" class="node"><title>Node1</title>
<polygon fill="none" stroke="#bfbfbf" points="0,-19.5 0,-38.5 42,-38.5 42,-19.5 0,-19.5"/>
<text text-anchor="middle" x="21" y="-26.5" font-family="Helvetica,sans-Serif" font-size="10.00">Enum</text>
</g>
<!-- Node2 -->
<g id="node2" class="node"><title>Node2</title>
<g id="a_node2"><a xlink:href="classmorunner_1_1communication_1_1Action.html" target="_top" xlink:title="morunner.communication.Action">
<polygon fill="none" stroke="black" points="80.5,-38.5 80.5,-57.5 237.5,-57.5 237.5,-38.5 80.5,-38.5"/>
<text text-anchor="middle" x="159" y="-45.5" font-family="Helvetica,sans-Serif" font-size="10.00">morunner.communication.Action</text>
</a>
</g>
</g>
<!-- Node1&#45;&gt;Node2 -->
<g id="edge1" class="edge"><title>Node1&#45;&gt;Node2</title>
<path fill="none" stroke="midnightblue" d="M52.1608,-33.2136C63.4043,-34.7844 76.6727,-36.6381 89.944,-38.4922"/>
<polygon fill="midnightblue" stroke="midnightblue" points="52.4554,-29.7209 42.0673,-31.8035 51.4868,-36.6536 52.4554,-29.7209"/>
</g>
<!-- Node3 -->
<g id="node3" class="node"><title>Node3</title>
<g id="a_node3"><a xlink:href="classmorunner_1_1communication_1_1Subject.html" target="_top" xlink:title="morunner.communication.Subject">
<polygon fill="none" stroke="black" points="78,-0.5 78,-19.5 240,-19.5 240,-0.5 78,-0.5"/>
<text text-anchor="middle" x="159" y="-7.5" font-family="Helvetica,sans-Serif" font-size="10.00">morunner.communication.Subject</text>
</a>
</g>
</g>
<!-- Node1&#45;&gt;Node3 -->
<g id="edge2" class="edge"><title>Node1&#45;&gt;Node3</title>
<path fill="none" stroke="midnightblue" d="M52.1608,-24.7864C63.4043,-23.2156 76.6727,-21.3619 89.944,-19.5078"/>
<polygon fill="midnightblue" stroke="midnightblue" points="51.4868,-21.3464 42.0673,-26.1965 52.4554,-28.2791 51.4868,-21.3464"/>
</g>
</g>
</svg>
